<?xml version="1.0" encoding="UTF-8"?>
<svg width="91px" height="91px" viewBox="0 0 91 91" version="1.1" xmlns="http://www.w3.org/2000/svg" xmlns:xlink="http://www.w3.org/1999/xlink">
    <!-- Generator: Sketch 63.1 (92452) - https://sketch.com -->
    <title>element/circle/orange copy 2</title>
    <desc>Created with Sketch.</desc>
    <defs>
        <path d="M0.62793576,45.2532371 C0.62793576,70.1194933 20.7862838,90.2778413 45.6525399,90.2778413 L45.6525399,90.2778413 C70.5198694,90.2778413 90.677144,70.1194933 90.677144,45.2532371 L90.677144,45.2532371 C90.677144,20.386981 70.5198694,0.227559626 45.6525399,0.227559626 L45.6525399,0.227559626 C20.7862838,0.227559626 0.62793576,20.386981 0.62793576,45.2532371" id="path-1"></path>
        <path d="M0.62793576,45.2532371 C0.62793576,70.1194933 20.7862838,90.2778413 45.6525399,90.2778413 L45.6525399,90.2778413 C70.5198694,90.2778413 90.677144,70.1194933 90.677144,45.2532371 L90.677144,45.2532371 C90.677144,20.386981 70.5198694,0.227559626 45.6525399,0.227559626 L45.6525399,0.227559626 C20.7862838,0.227559626 0.62793576,20.386981 0.62793576,45.2532371" id="path-3"></path>
        <path d="M0.62793576,45.2532371 C0.62793576,70.1194933 20.7862838,90.2778413 45.6525399,90.2778413 L45.6525399,90.2778413 C70.5198694,90.2778413 90.677144,70.1194933 90.677144,45.2532371 L90.677144,45.2532371 C90.677144,20.386981 70.5198694,0.227559626 45.6525399,0.227559626 L45.6525399,0.227559626 C20.7862838,0.227559626 0.62793576,20.386981 0.62793576,45.2532371" id="path-5"></path>
        <path d="M0.62793576,45.2532371 C0.62793576,70.1194933 20.7862838,90.2778413 45.6525399,90.2778413 L45.6525399,90.2778413 C70.5198694,90.2778413 90.677144,70.1194933 90.677144,45.2532371 L90.677144,45.2532371 C90.677144,20.386981 70.5198694,0.227559626 45.6525399,0.227559626 L45.6525399,0.227559626 C20.7862838,0.227559626 0.62793576,20.386981 0.62793576,45.2532371" id="path-7"></path>
        <path d="M0.62793576,45.2532371 C0.62793576,70.1194933 20.7862838,90.2778413 45.6525399,90.2778413 L45.6525399,90.2778413 C70.5198694,90.2778413 90.677144,70.1194933 90.677144,45.2532371 L90.677144,45.2532371 C90.677144,20.386981 70.5198694,0.227559626 45.6525399,0.227559626 L45.6525399,0.227559626 C20.7862838,0.227559626 0.62793576,20.386981 0.62793576,45.2532371" id="path-9"></path>
        <path d="M0.62793576,45.2532371 C0.62793576,70.1194933 20.7862838,90.2778413 45.6525399,90.2778413 L45.6525399,90.2778413 C70.5198694,90.2778413 90.677144,70.1194933 90.677144,45.2532371 L90.677144,45.2532371 C90.677144,20.386981 70.5198694,0.227559626 45.6525399,0.227559626 L45.6525399,0.227559626 C20.7862838,0.227559626 0.62793576,20.386981 0.62793576,45.2532371" id="path-11"></path>
        <path d="M0.62793576,45.2532371 C0.62793576,70.1194933 20.7862838,90.2778413 45.6525399,90.2778413 L45.6525399,90.2778413 C70.5198694,90.2778413 90.677144,70.1194933 90.677144,45.2532371 L90.677144,45.2532371 C90.677144,20.386981 70.5198694,0.227559626 45.6525399,0.227559626 L45.6525399,0.227559626 C20.7862838,0.227559626 0.62793576,20.386981 0.62793576,45.2532371" id="path-13"></path>
        <path d="M0.62793576,45.2532371 C0.62793576,70.1194933 20.7862838,90.2778413 45.6525399,90.2778413 L45.6525399,90.2778413 C70.5198694,90.2778413 90.677144,70.1194933 90.677144,45.2532371 L90.677144,45.2532371 C90.677144,20.386981 70.5198694,0.227559626 45.6525399,0.227559626 L45.6525399,0.227559626 C20.7862838,0.227559626 0.62793576,20.386981 0.62793576,45.2532371" id="path-15"></path>
        <path d="M0.62793576,45.2532371 C0.62793576,70.1194933 20.7862838,90.2778413 45.6525399,90.2778413 L45.6525399,90.2778413 C70.5198694,90.2778413 90.677144,70.1194933 90.677144,45.2532371 L90.677144,45.2532371 C90.677144,20.386981 70.5198694,0.227559626 45.6525399,0.227559626 L45.6525399,0.227559626 C20.7862838,0.227559626 0.62793576,20.386981 0.62793576,45.2532371" id="path-17"></path>
        <path d="M0.62793576,45.2532371 C0.62793576,70.1194933 20.7862838,90.2778413 45.6525399,90.2778413 L45.6525399,90.2778413 C70.5198694,90.2778413 90.677144,70.1194933 90.677144,45.2532371 L90.677144,45.2532371 C90.677144,20.386981 70.5198694,0.227559626 45.6525399,0.227559626 L45.6525399,0.227559626 C20.7862838,0.227559626 0.62793576,20.386981 0.62793576,45.2532371" id="path-19"></path>
        <path d="M0.62793576,45.2532371 C0.62793576,70.1194933 20.7862838,90.2778413 45.6525399,90.2778413 L45.6525399,90.2778413 C70.5198694,90.2778413 90.677144,70.1194933 90.677144,45.2532371 L90.677144,45.2532371 C90.677144,20.386981 70.5198694,0.227559626 45.6525399,0.227559626 L45.6525399,0.227559626 C20.7862838,0.227559626 0.62793576,20.386981 0.62793576,45.2532371" id="path-21"></path>
        <path d="M0.62793576,45.2532371 C0.62793576,70.1194933 20.7862838,90.2778413 45.6525399,90.2778413 L45.6525399,90.2778413 C70.5198694,90.2778413 90.677144,70.1194933 90.677144,45.2532371 L90.677144,45.2532371 C90.677144,20.386981 70.5198694,0.227559626 45.6525399,0.227559626 L45.6525399,0.227559626 C20.7862838,0.227559626 0.62793576,20.386981 0.62793576,45.2532371" id="path-23"></path>
        <path d="M0.62793576,45.2532371 C0.62793576,70.1194933 20.7862838,90.2778413 45.6525399,90.2778413 L45.6525399,90.2778413 C70.5198694,90.2778413 90.677144,70.1194933 90.677144,45.2532371 L90.677144,45.2532371 C90.677144,20.386981 70.5198694,0.227559626 45.6525399,0.227559626 L45.6525399,0.227559626 C20.7862838,0.227559626 0.62793576,20.386981 0.62793576,45.2532371" id="path-25"></path>
        <path d="M0.62793576,45.2532371 C0.62793576,70.1194933 20.7862838,90.2778413 45.6525399,90.2778413 L45.6525399,90.2778413 C70.5198694,90.2778413 90.677144,70.1194933 90.677144,45.2532371 L90.677144,45.2532371 C90.677144,20.386981 70.5198694,0.227559626 45.6525399,0.227559626 L45.6525399,0.227559626 C20.7862838,0.227559626 0.62793576,20.386981 0.62793576,45.2532371" id="path-27"></path>
        <path d="M0.62793576,45.2532371 C0.62793576,70.1194933 20.7862838,90.2778413 45.6525399,90.2778413 L45.6525399,90.2778413 C70.5198694,90.2778413 90.677144,70.1194933 90.677144,45.2532371 L90.677144,45.2532371 C90.677144,20.386981 70.5198694,0.227559626 45.6525399,0.227559626 L45.6525399,0.227559626 C20.7862838,0.227559626 0.62793576,20.386981 0.62793576,45.2532371" id="path-29"></path>
        <path d="M0.62793576,45.2532371 C0.62793576,70.1194933 20.7862838,90.2778413 45.6525399,90.2778413 L45.6525399,90.2778413 C70.5198694,90.2778413 90.677144,70.1194933 90.677144,45.2532371 L90.677144,45.2532371 C90.677144,20.386981 70.5198694,0.227559626 45.6525399,0.227559626 L45.6525399,0.227559626 C20.7862838,0.227559626 0.62793576,20.386981 0.62793576,45.2532371" id="path-31"></path>
        <path d="M0.62793576,45.2532371 C0.62793576,70.1194933 20.7862838,90.2778413 45.6525399,90.2778413 L45.6525399,90.2778413 C70.5198694,90.2778413 90.677144,70.1194933 90.677144,45.2532371 L90.677144,45.2532371 C90.677144,20.386981 70.5198694,0.227559626 45.6525399,0.227559626 L45.6525399,0.227559626 C20.7862838,0.227559626 0.62793576,20.386981 0.62793576,45.2532371" id="path-33"></path>
        <path d="M0.62793576,45.2532371 C0.62793576,70.1194933 20.7862838,90.2778413 45.6525399,90.2778413 L45.6525399,90.2778413 C70.5198694,90.2778413 90.677144,70.1194933 90.677144,45.2532371 L90.677144,45.2532371 C90.677144,20.386981 70.5198694,0.227559626 45.6525399,0.227559626 L45.6525399,0.227559626 C20.7862838,0.227559626 0.62793576,20.386981 0.62793576,45.2532371" id="path-35"></path>
        <path d="M0.62793576,45.2532371 C0.62793576,70.1194933 20.7862838,90.2778413 45.6525399,90.2778413 L45.6525399,90.2778413 C70.5198694,90.2778413 90.677144,70.1194933 90.677144,45.2532371 L90.677144,45.2532371 C90.677144,20.386981 70.5198694,0.227559626 45.6525399,0.227559626 L45.6525399,0.227559626 C20.7862838,0.227559626 0.62793576,20.386981 0.62793576,45.2532371" id="path-37"></path>
    </defs>
    <g id="Symbols" stroke="none" stroke-width="1" fill="none" fill-rule="evenodd">
        <g id="Footer" transform="translate(-314.000000, 28.000000)">
            <g id="element/circle/orange" transform="translate(314.000000, -28.000000)">
                <g id="Group-139-Copy-2">
                    <mask id="mask-2" fill="white">
                        <use xlink:href="#path-1"></use>
                    </mask>
                    <g id="Clip-83"></g>
                    <line x1="70.5588336" y1="98.3365649" x2="171.123014" y2="-2.22761553" id="Stroke-82" stroke="#FFA015" stroke-width="2" mask="url(#mask-2)"></line>
                    <mask id="mask-4" fill="white">
                        <use xlink:href="#path-3"></use>
                    </mask>
                    <g id="Clip-86"></g>
                    <line x1="60.8280834" y1="98.3365649" x2="161.392264" y2="-2.22761553" id="Stroke-85" stroke="#FFA015" stroke-width="2" mask="url(#mask-4)"></line>
                    <mask id="mask-6" fill="white">
                        <use xlink:href="#path-5"></use>
                    </mask>
                    <g id="Clip-89"></g>
                    <line x1="51.097226" y1="98.3365649" x2="151.660333" y2="-2.22761553" id="Stroke-88" stroke="#FFA015" stroke-width="2" mask="url(#mask-6)"></line>
                    <mask id="mask-8" fill="white">
                        <use xlink:href="#path-7"></use>
                    </mask>
                    <g id="Clip-92"></g>
                    <line x1="41.3654024" y1="98.3365649" x2="141.929583" y2="-2.22761553" id="Stroke-91" stroke="#FFA015" stroke-width="2" mask="url(#mask-8)"></line>
                    <mask id="mask-10" fill="white">
                        <use xlink:href="#path-9"></use>
                    </mask>
                    <g id="Clip-95"></g>
                    <line x1="31.6346522" y1="98.3365649" x2="132.198833" y2="-2.22761553" id="Stroke-94" stroke="#FFA015" stroke-width="2" mask="url(#mask-10)"></line>
                    <mask id="mask-12" fill="white">
                        <use xlink:href="#path-11"></use>
                    </mask>
                    <g id="Clip-98"></g>
                    <line x1="21.9039021" y1="98.3365649" x2="122.468082" y2="-2.22761553" id="Stroke-97" stroke="#FFA015" stroke-width="2" mask="url(#mask-12)"></line>
                    <mask id="mask-14" fill="white">
                        <use xlink:href="#path-13"></use>
                    </mask>
                    <g id="Clip-101"></g>
                    <line x1="12.1730446" y1="98.3365649" x2="112.737225" y2="-2.22761553" id="Stroke-100" stroke="#FFA015" stroke-width="2" mask="url(#mask-14)"></line>
                    <mask id="mask-16" fill="white">
                        <use xlink:href="#path-15"></use>
                    </mask>
                    <g id="Clip-104"></g>
                    <line x1="2.44229442" y1="98.3365649" x2="103.005401" y2="-2.22761553" id="Stroke-103" stroke="#FFA015" stroke-width="2" mask="url(#mask-16)"></line>
                    <mask id="mask-18" fill="white">
                        <use xlink:href="#path-17"></use>
                    </mask>
                    <g id="Clip-107"></g>
                    <line x1="-7.28952913" y1="98.3365649" x2="93.2746513" y2="-2.22761553" id="Stroke-106" stroke="#FFA015" stroke-width="2" mask="url(#mask-18)"></line>
                    <mask id="mask-20" fill="white">
                        <use xlink:href="#path-19"></use>
                    </mask>
                    <g id="Clip-110"></g>
                    <line x1="-17.0202793" y1="98.3365649" x2="83.5439011" y2="-2.22761553" id="Stroke-109" stroke="#FFA015" stroke-width="2" mask="url(#mask-20)"></line>
                    <mask id="mask-22" fill="white">
                        <use xlink:href="#path-21"></use>
                    </mask>
                    <g id="Clip-113"></g>
                    <line x1="-26.7511368" y1="98.3365649" x2="73.8130436" y2="-2.22761553" id="Stroke-112" stroke="#FFA015" stroke-width="2" mask="url(#mask-22)"></line>
                    <mask id="mask-24" fill="white">
                        <use xlink:href="#path-23"></use>
                    </mask>
                    <g id="Clip-116"></g>
                    <line x1="-36.481887" y1="98.3365649" x2="64.0822934" y2="-2.22761553" id="Stroke-115" stroke="#FFA015" stroke-width="2" mask="url(#mask-24)"></line>
                    <mask id="mask-26" fill="white">
                        <use xlink:href="#path-25"></use>
                    </mask>
                    <g id="Clip-119"></g>
                    <line x1="-46.2137105" y1="98.3365649" x2="54.3504699" y2="-2.22761553" id="Stroke-118" stroke="#FFA015" stroke-width="2" mask="url(#mask-26)"></line>
                    <mask id="mask-28" fill="white">
                        <use xlink:href="#path-27"></use>
                    </mask>
                    <g id="Clip-122"></g>
                    <line x1="-55.9444607" y1="98.3365649" x2="44.6197197" y2="-2.22761553" id="Stroke-121" stroke="#FFA015" stroke-width="2" mask="url(#mask-28)"></line>
                    <mask id="mask-30" fill="white">
                        <use xlink:href="#path-29"></use>
                    </mask>
                    <g id="Clip-125"></g>
                    <line x1="-65.6753182" y1="98.3365649" x2="34.8888622" y2="-2.22761553" id="Stroke-124" stroke="#FFA015" stroke-width="2" mask="url(#mask-30)"></line>
                    <mask id="mask-32" fill="white">
                        <use xlink:href="#path-31"></use>
                    </mask>
                    <g id="Clip-128"></g>
                    <line x1="-75.4060683" y1="98.3365649" x2="25.1581121" y2="-2.22761553" id="Stroke-127" stroke="#FFA015" stroke-width="2" mask="url(#mask-32)"></line>
                    <mask id="mask-34" fill="white">
                        <use xlink:href="#path-33"></use>
                    </mask>
                    <g id="Clip-131"></g>
                    <line x1="-85.1368185" y1="98.3365649" x2="15.4273619" y2="-2.22761553" id="Stroke-130" stroke="#FFA015" stroke-width="2" mask="url(#mask-34)"></line>
                    <mask id="mask-36" fill="white">
                        <use xlink:href="#path-35"></use>
                    </mask>
                    <g id="Clip-134"></g>
                    <line x1="-94.868642" y1="98.3365649" x2="5.69553836" y2="-2.22761553" id="Stroke-133" stroke="#FFA015" stroke-width="2" mask="url(#mask-36)"></line>
                    <mask id="mask-38" fill="white">
                        <use xlink:href="#path-37"></use>
                    </mask>
                    <g id="Clip-137"></g>
                    <line x1="-104.5995" y1="98.3365649" x2="-4.03531914" y2="-2.22761553" id="Stroke-136" stroke="#FFA015" stroke-width="2" mask="url(#mask-38)"></line>
                </g>
            </g>
        </g>
    </g>
</svg>