<?xml version="1.0" encoding="UTF-8"?>
<svg width="181px" height="181px" viewBox="0 0 181 181" version="1.1" xmlns="http://www.w3.org/2000/svg" xmlns:xlink="http://www.w3.org/1999/xlink">
    <!-- Generator: Sketch 63.1 (92452) - https://sketch.com -->
    <title>element/circle/blue copy</title>
    <desc>Created with Sketch.</desc>
    <defs>
        <path d="M90.3050798,180.555683 C140.039739,180.555683 180.354288,140.238987 180.354288,90.5064743 C180.354288,40.773962 140.039739,0.455119252 90.3050798,0.455119252 C40.5725675,0.455119252 0.255871521,40.773962 0.255871521,90.5064743 C0.255871521,140.238987 40.5725675,180.555683 90.3050798,180.555683 Z" id="path-1"></path>
        <path d="M90.3050798,180.555683 C140.039739,180.555683 180.354288,140.238987 180.354288,90.5064743 C180.354288,40.773962 140.039739,0.455119252 90.3050798,0.455119252 C40.5725675,0.455119252 0.255871521,40.773962 0.255871521,90.5064743 C0.255871521,140.238987 40.5725675,180.555683 90.3050798,180.555683 Z" id="path-3"></path>
        <path d="M90.3050798,180.555683 C140.039739,180.555683 180.354288,140.238987 180.354288,90.5064743 C180.354288,40.773962 140.039739,0.455119252 90.3050798,0.455119252 C40.5725675,0.455119252 0.255871521,40.773962 0.255871521,90.5064743 C0.255871521,140.238987 40.5725675,180.555683 90.3050798,180.555683 Z" id="path-5"></path>
        <path d="M90.3050798,180.555683 C140.039739,180.555683 180.354288,140.238987 180.354288,90.5064743 C180.354288,40.773962 140.039739,0.455119252 90.3050798,0.455119252 C40.5725675,0.455119252 0.255871521,40.773962 0.255871521,90.5064743 C0.255871521,140.238987 40.5725675,180.555683 90.3050798,180.555683 Z" id="path-7"></path>
        <path d="M90.3050798,180.555683 C140.039739,180.555683 180.354288,140.238987 180.354288,90.5064743 C180.354288,40.773962 140.039739,0.455119252 90.3050798,0.455119252 C40.5725675,0.455119252 0.255871521,40.773962 0.255871521,90.5064743 C0.255871521,140.238987 40.5725675,180.555683 90.3050798,180.555683 Z" id="path-9"></path>
        <path d="M90.3050798,180.555683 C140.039739,180.555683 180.354288,140.238987 180.354288,90.5064743 C180.354288,40.773962 140.039739,0.455119252 90.3050798,0.455119252 C40.5725675,0.455119252 0.255871521,40.773962 0.255871521,90.5064743 C0.255871521,140.238987 40.5725675,180.555683 90.3050798,180.555683 Z" id="path-11"></path>
        <path d="M90.3050798,180.555683 C140.039739,180.555683 180.354288,140.238987 180.354288,90.5064743 C180.354288,40.773962 140.039739,0.455119252 90.3050798,0.455119252 C40.5725675,0.455119252 0.255871521,40.773962 0.255871521,90.5064743 C0.255871521,140.238987 40.5725675,180.555683 90.3050798,180.555683 Z" id="path-13"></path>
        <path d="M90.3050798,180.555683 C140.039739,180.555683 180.354288,140.238987 180.354288,90.5064743 C180.354288,40.773962 140.039739,0.455119252 90.3050798,0.455119252 C40.5725675,0.455119252 0.255871521,40.773962 0.255871521,90.5064743 C0.255871521,140.238987 40.5725675,180.555683 90.3050798,180.555683 Z" id="path-15"></path>
        <path d="M90.3050798,180.555683 C140.039739,180.555683 180.354288,140.238987 180.354288,90.5064743 C180.354288,40.773962 140.039739,0.455119252 90.3050798,0.455119252 C40.5725675,0.455119252 0.255871521,40.773962 0.255871521,90.5064743 C0.255871521,140.238987 40.5725675,180.555683 90.3050798,180.555683 Z" id="path-17"></path>
        <path d="M90.3050798,180.555683 C140.039739,180.555683 180.354288,140.238987 180.354288,90.5064743 C180.354288,40.773962 140.039739,0.455119252 90.3050798,0.455119252 C40.5725675,0.455119252 0.255871521,40.773962 0.255871521,90.5064743 C0.255871521,140.238987 40.5725675,180.555683 90.3050798,180.555683 Z" id="path-19"></path>
        <path d="M90.3050798,180.555683 C140.039739,180.555683 180.354288,140.238987 180.354288,90.5064743 C180.354288,40.773962 140.039739,0.455119252 90.3050798,0.455119252 C40.5725675,0.455119252 0.255871521,40.773962 0.255871521,90.5064743 C0.255871521,140.238987 40.5725675,180.555683 90.3050798,180.555683 Z" id="path-21"></path>
        <path d="M90.3050798,180.555683 C140.039739,180.555683 180.354288,140.238987 180.354288,90.5064743 C180.354288,40.773962 140.039739,0.455119252 90.3050798,0.455119252 C40.5725675,0.455119252 0.255871521,40.773962 0.255871521,90.5064743 C0.255871521,140.238987 40.5725675,180.555683 90.3050798,180.555683 Z" id="path-23"></path>
        <path d="M90.3050798,180.555683 C140.039739,180.555683 180.354288,140.238987 180.354288,90.5064743 C180.354288,40.773962 140.039739,0.455119252 90.3050798,0.455119252 C40.5725675,0.455119252 0.255871521,40.773962 0.255871521,90.5064743 C0.255871521,140.238987 40.5725675,180.555683 90.3050798,180.555683 Z" id="path-25"></path>
        <path d="M90.3050798,180.555683 C140.039739,180.555683 180.354288,140.238987 180.354288,90.5064743 C180.354288,40.773962 140.039739,0.455119252 90.3050798,0.455119252 C40.5725675,0.455119252 0.255871521,40.773962 0.255871521,90.5064743 C0.255871521,140.238987 40.5725675,180.555683 90.3050798,180.555683 Z" id="path-27"></path>
        <path d="M90.3050798,180.555683 C140.039739,180.555683 180.354288,140.238987 180.354288,90.5064743 C180.354288,40.773962 140.039739,0.455119252 90.3050798,0.455119252 C40.5725675,0.455119252 0.255871521,40.773962 0.255871521,90.5064743 C0.255871521,140.238987 40.5725675,180.555683 90.3050798,180.555683 Z" id="path-29"></path>
        <path d="M90.3050798,180.555683 C140.039739,180.555683 180.354288,140.238987 180.354288,90.5064743 C180.354288,40.773962 140.039739,0.455119252 90.3050798,0.455119252 C40.5725675,0.455119252 0.255871521,40.773962 0.255871521,90.5064743 C0.255871521,140.238987 40.5725675,180.555683 90.3050798,180.555683 Z" id="path-31"></path>
        <path d="M90.3050798,180.555683 C140.039739,180.555683 180.354288,140.238987 180.354288,90.5064743 C180.354288,40.773962 140.039739,0.455119252 90.3050798,0.455119252 C40.5725675,0.455119252 0.255871521,40.773962 0.255871521,90.5064743 C0.255871521,140.238987 40.5725675,180.555683 90.3050798,180.555683 Z" id="path-33"></path>
        <path d="M90.3050798,180.555683 C140.039739,180.555683 180.354288,140.238987 180.354288,90.5064743 C180.354288,40.773962 140.039739,0.455119252 90.3050798,0.455119252 C40.5725675,0.455119252 0.255871521,40.773962 0.255871521,90.5064743 C0.255871521,140.238987 40.5725675,180.555683 90.3050798,180.555683 Z" id="path-35"></path>
        <path d="M90.3050798,180.555683 C140.039739,180.555683 180.354288,140.238987 180.354288,90.5064743 C180.354288,40.773962 140.039739,0.455119252 90.3050798,0.455119252 C40.5725675,0.455119252 0.255871521,40.773962 0.255871521,90.5064743 C0.255871521,140.238987 40.5725675,180.555683 90.3050798,180.555683 Z" id="path-37"></path>
    </defs>
    <g id="Desktop" stroke="none" stroke-width="1" fill="none" fill-rule="evenodd">
        <g id="home" transform="translate(-998.000000, -114.000000)">
            <g id="element/circle/blue-copy" transform="translate(998.000000, 114.000000)">
                <g id="Group-139-Copy-2">
                    <mask id="mask-2" fill="white">
                        <use xlink:href="#path-1"></use>
                    </mask>
                    <g id="Clip-83"></g>
                    <line x1="140.117667" y1="196.67313" x2="341.246028" y2="-4.45523106" id="Stroke-82" stroke="#1B42D8" stroke-width="2" mask="url(#mask-2)"></line>
                    <mask id="mask-4" fill="white">
                        <use xlink:href="#path-3"></use>
                    </mask>
                    <g id="Clip-86"></g>
                    <line x1="120.656167" y1="196.67313" x2="321.784528" y2="-4.45523106" id="Stroke-85" stroke="#1B42D8" stroke-width="2" mask="url(#mask-4)"></line>
                    <mask id="mask-6" fill="white">
                        <use xlink:href="#path-5"></use>
                    </mask>
                    <g id="Clip-89"></g>
                    <line x1="101.194452" y1="196.67313" x2="302.320666" y2="-4.45523106" id="Stroke-88" stroke="#1B42D8" stroke-width="2" mask="url(#mask-6)"></line>
                    <mask id="mask-8" fill="white">
                        <use xlink:href="#path-7"></use>
                    </mask>
                    <g id="Clip-92"></g>
                    <line x1="81.7308048" y1="196.67313" x2="282.859166" y2="-4.45523106" id="Stroke-91" stroke="#1B42D8" stroke-width="2" mask="url(#mask-8)"></line>
                    <mask id="mask-10" fill="white">
                        <use xlink:href="#path-9"></use>
                    </mask>
                    <g id="Clip-95"></g>
                    <line x1="62.2693045" y1="196.67313" x2="263.397665" y2="-4.45523106" id="Stroke-94" stroke="#1B42D8" stroke-width="2" mask="url(#mask-10)"></line>
                    <mask id="mask-12" fill="white">
                        <use xlink:href="#path-11"></use>
                    </mask>
                    <g id="Clip-98"></g>
                    <line x1="42.8078042" y1="196.67313" x2="243.936165" y2="-4.45523106" id="Stroke-97" stroke="#1B42D8" stroke-width="2" mask="url(#mask-12)"></line>
                    <mask id="mask-14" fill="white">
                        <use xlink:href="#path-13"></use>
                    </mask>
                    <g id="Clip-101"></g>
                    <line x1="23.3460892" y1="196.67313" x2="224.47445" y2="-4.45523106" id="Stroke-100" stroke="#1B42D8" stroke-width="2" mask="url(#mask-14)"></line>
                    <mask id="mask-16" fill="white">
                        <use xlink:href="#path-15"></use>
                    </mask>
                    <g id="Clip-104"></g>
                    <line x1="3.88458884" y1="196.67313" x2="205.010803" y2="-4.45523106" id="Stroke-103" stroke="#1B42D8" stroke-width="2" mask="url(#mask-16)"></line>
                    <mask id="mask-18" fill="white">
                        <use xlink:href="#path-17"></use>
                    </mask>
                    <g id="Clip-107"></g>
                    <line x1="-15.5790583" y1="196.67313" x2="185.549303" y2="-4.45523106" id="Stroke-106" stroke="#1B42D8" stroke-width="2" mask="url(#mask-18)"></line>
                    <mask id="mask-20" fill="white">
                        <use xlink:href="#path-19"></use>
                    </mask>
                    <g id="Clip-110"></g>
                    <line x1="-35.0405586" y1="196.67313" x2="166.087802" y2="-4.45523106" id="Stroke-109" stroke="#1B42D8" stroke-width="2" mask="url(#mask-20)"></line>
                    <mask id="mask-22" fill="white">
                        <use xlink:href="#path-21"></use>
                    </mask>
                    <g id="Clip-113"></g>
                    <line x1="-54.5022736" y1="196.67313" x2="146.626087" y2="-4.45523106" id="Stroke-112" stroke="#1B42D8" stroke-width="2" mask="url(#mask-22)"></line>
                    <mask id="mask-24" fill="white">
                        <use xlink:href="#path-23"></use>
                    </mask>
                    <g id="Clip-116"></g>
                    <line x1="-73.9637739" y1="196.67313" x2="127.164587" y2="-4.45523106" id="Stroke-115" stroke="#1B42D8" stroke-width="2" mask="url(#mask-24)"></line>
                    <mask id="mask-26" fill="white">
                        <use xlink:href="#path-25"></use>
                    </mask>
                    <g id="Clip-119"></g>
                    <line x1="-93.427421" y1="196.67313" x2="107.70094" y2="-4.45523106" id="Stroke-118" stroke="#1B42D8" stroke-width="2" mask="url(#mask-26)"></line>
                    <mask id="mask-28" fill="white">
                        <use xlink:href="#path-27"></use>
                    </mask>
                    <g id="Clip-122"></g>
                    <line x1="-112.888921" y1="196.67313" x2="88.2394395" y2="-4.45523106" id="Stroke-121" stroke="#1B42D8" stroke-width="2" mask="url(#mask-28)"></line>
                    <mask id="mask-30" fill="white">
                        <use xlink:href="#path-29"></use>
                    </mask>
                    <g id="Clip-125"></g>
                    <line x1="-132.350636" y1="196.67313" x2="68.7777245" y2="-4.45523106" id="Stroke-124" stroke="#1B42D8" stroke-width="2" mask="url(#mask-30)"></line>
                    <mask id="mask-32" fill="white">
                        <use xlink:href="#path-31"></use>
                    </mask>
                    <g id="Clip-128"></g>
                    <line x1="-151.812137" y1="196.67313" x2="49.3162241" y2="-4.45523106" id="Stroke-127" stroke="#1B42D8" stroke-width="2" mask="url(#mask-32)"></line>
                    <mask id="mask-34" fill="white">
                        <use xlink:href="#path-33"></use>
                    </mask>
                    <g id="Clip-131"></g>
                    <line x1="-171.273637" y1="196.67313" x2="29.8547238" y2="-4.45523106" id="Stroke-130" stroke="#1B42D8" stroke-width="2" mask="url(#mask-34)"></line>
                    <mask id="mask-36" fill="white">
                        <use xlink:href="#path-35"></use>
                    </mask>
                    <g id="Clip-134"></g>
                    <line x1="-190.737284" y1="196.67313" x2="10.3910767" y2="-4.45523106" id="Stroke-133" stroke="#1B42D8" stroke-width="2" mask="url(#mask-36)"></line>
                    <mask id="mask-38" fill="white">
                        <use xlink:href="#path-37"></use>
                    </mask>
                    <g id="Clip-137"></g>
                </g>
            </g>
        </g>
    </g>
</svg>