<?xml version="1.0" standalone="no"?>
<!DOCTYPE svg PUBLIC "-//W3C//DTD SVG 20010904//EN"
 "http://www.w3.org/TR/2001/REC-SVG-20010904/DTD/svg10.dtd">
<svg version="1.0" xmlns="http://www.w3.org/2000/svg"
 width="672.000000pt" height="672.000000pt" viewBox="0 0 672.000000 672.000000"
 preserveAspectRatio="xMidYMid meet">
<metadata>
Created by potrace 1.11, written by Peter Selinger 2001-2013
</metadata>
<g transform="translate(0.000000,672.000000) scale(0.100000,-0.100000)"
fill="#000000" stroke="none">
<path d="M1847 4872 l-1848 -1849 5 -39 c3 -21 8 -65 12 -96 3 -32 9 -58 13
-58 8 0 3861 3853 3861 3861 0 6 -25 10 -150 24 l-45 5 -1848 -1848z"/>
<path d="M2165 6519 c-71 -27 -152 -60 -180 -73 -40 -20 -215 -190 -876 -853
l-827 -828 -56 -141 c-31 -77 -56 -147 -56 -155 0 -8 -5 -20 -11 -26 -6 -6
-10 -16 -8 -22 2 -6 490 475 1084 1069 594 594 1075 1080 1070 1080 -6 -1 -68
-23 -140 -51z"/>
<path d="M2578 4142 l-2256 -2257 37 -77 37 -78 2287 2288 c1258 1258 2287
2291 2288 2297 1 5 -29 27 -68 47 l-69 37 -2256 -2257z"/>
<path d="M3312 3417 c-1310 -1310 -2382 -2386 -2381 -2392 0 -14 88 -105 101
-105 13 0 4768 4754 4768 4767 0 5 -24 32 -53 61 l-53 52 -2382 -2383z"/>
<path d="M4036 2684 c-1258 -1257 -2286 -2287 -2284 -2288 13 -13 107 -65 125
-71 20 -5 302 273 2273 2244 1237 1237 2250 2253 2250 2257 0 8 -59 127 -69
137 -4 4 -1037 -1021 -2295 -2279z"/>
<path d="M4771 1959 c-1056 -1057 -1921 -1925 -1921 -1929 0 -8 34 -14 138
-26 l52 -6 1840 1840 1839 1840 -3 44 c-6 62 -17 152 -20 156 -2 1 -868 -862
-1925 -1919z"/>
<path d="M5500 1229 c-580 -582 -1057 -1061 -1060 -1065 -3 -3 6 -1 20 4 14 6
59 23 100 38 41 15 104 41 140 57 66 31 72 34 90 36 6 0 371 362 811 804 658
659 806 812 829 857 31 63 133 320 128 325 -2 1 -478 -474 -1058 -1056z"/>
</g>
</svg>
