<?xml version="1.0" standalone="no"?>
<!DOCTYPE svg PUBLIC "-//W3C//DTD SVG 20010904//EN"
 "http://www.w3.org/TR/2001/REC-SVG-20010904/DTD/svg10.dtd">
<svg version="1.0" xmlns="http://www.w3.org/2000/svg"
 width="500.000000pt" height="500.000000pt" viewBox="0 0 500.000000 500.000000"
 preserveAspectRatio="xMidYMid meet">
<metadata>
Created by potrace 1.11, written by Peter Selinger 2001-2013
</metadata>
<g transform="translate(0.000000,500.000000) scale(0.100000,-0.100000)"
fill="#000000" stroke="none">
<path d="M1012 3686 c-653 -652 -994 -1000 -997 -1016 -3 -17 323 303 1010
990 558 558 1015 1015 1015 1016 0 0 -8 1 -17 1 -11 0 -428 -409 -1011 -991z"/>
<path d="M2562 4672 c-12 -8 -371 -362 -1595 -1572 -270 -268 -418 -421 -415
-430 3 -11 21 1 60 40 343 340 1456 1440 1684 1665 162 160 294 293 294 298 0
9 -12 9 -28 -1z"/>
<path d="M1245 3445 c-759 -759 -1223 -1230 -1219 -1238 5 -14 2464 2436 2464
2454 0 5 -4 9 -10 9 -5 0 -561 -551 -1235 -1225z"/>
<path d="M2907 4542 c-73 -72 -211 -207 -307 -302 -96 -95 -499 -493 -895
-885 -396 -392 -816 -806 -933 -921 -183 -181 -240 -246 -203 -232 10 3 279
267 1350 1327 392 388 810 801 928 917 138 136 211 214 203 219 -7 4 -61 -42
-143 -123z"/>
<path d="M1482 3207 c-754 -754 -1372 -1378 -1372 -1385 0 -6 3 -12 7 -12 13
0 2762 2754 2757 2762 -3 4 -8 8 -12 8 -4 0 -625 -618 -1380 -1373z"/>
<path d="M3220 4379 c-260 -255 -1475 -1457 -2102 -2078 -307 -305 -475 -478
-469 -484 6 -6 150 130 403 381 216 214 470 466 564 559 173 169 1437 1419
1695 1676 77 76 139 140 139 142 0 23 -54 -23 -230 -196z"/>
<path d="M1395 4530 c-33 -14 -1232 -1223 -1240 -1250 -5 -15 116 99 312 295
176 176 465 465 642 643 178 177 319 322 315 321 -5 0 -18 -4 -29 -9z"/>
<path d="M1948 4532 c-34 -14 -1233 -1205 -1255 -1247 -16 -29 -15 -30 3 -15
10 8 182 177 382 375 200 198 485 480 635 627 150 148 268 268 262 267 -5 0
-18 -3 -27 -7z"/>
<path d="M1717 2972 c-807 -807 -1467 -1473 -1467 -1480 0 -6 3 -12 8 -12 9 0
2952 2943 2952 2953 0 4 -6 7 -13 7 -6 0 -672 -660 -1480 -1468z"/>
<path d="M3663 4344 c-54 -53 -276 -272 -493 -487 -966 -957 -1931 -1910
-2146 -2121 -201 -197 -264 -269 -225 -254 10 3 313 301 1077 1057 793 785
1856 1836 1863 1841 3 3 17 18 30 33 20 22 21 27 8 27 -9 0 -61 -43 -114 -96z"/>
<path d="M1956 2734 c-839 -839 -1526 -1530 -1526 -1535 0 -5 4 -9 9 -9 14 0
3070 3058 3063 3064 -3 4 -9 6 -13 6 -4 0 -694 -687 -1533 -1526z"/>
<path d="M3670 3878 c-424 -421 -925 -916 -1993 -1972 -389 -384 -707 -703
-707 -707 0 -5 5 -9 11 -9 6 0 170 157 363 349 193 192 416 413 496 492 80 78
474 466 875 864 402 397 873 863 1048 1035 174 172 317 317 317 321 0 5 -6 9
-12 9 -7 0 -186 -172 -398 -382z"/>
<path d="M2190 2495 c-1031 -1031 -1541 -1548 -1534 -1555 6 -6 524 505 1557
1538 851 851 1547 1550 1547 1555 0 4 -6 7 -13 7 -6 0 -707 -695 -1557 -1545z"/>
<path d="M4100 3829 c-118 -117 -422 -417 -676 -668 -731 -723 -1852 -1832
-2053 -2030 -114 -112 -181 -185 -175 -191 5 -5 104 85 259 237 291 286 1440
1421 2119 2094 259 257 537 532 619 611 128 125 154 158 128 158 -3 0 -103
-95 -221 -211z"/>
<path d="M2426 2261 c-1017 -1017 -1524 -1531 -1516 -1536 8 -5 123 103 336
316 1883 1882 2724 2726 2725 2734 0 5 -3 11 -8 12 -4 2 -696 -685 -1537
-1526z"/>
<path d="M4470 3723 c-94 -95 -1490 -1477 -1695 -1678 -540 -530 -1325 -1311
-1325 -1318 0 -5 6 -7 14 -5 8 2 308 293 666 648 359 355 727 719 819 809 91
90 487 482 880 870 392 388 718 709 723 712 11 7 2 30 -10 28 -4 0 -36 -30
-72 -66z"/>
<path d="M2685 2042 c-803 -803 -1469 -1469 -1479 -1481 -17 -18 -17 -21 -3
-21 24 0 2949 2927 2945 2947 -2 10 -548 -530 -1463 -1445z"/>
<path d="M4385 3163 c-187 -184 -527 -520 -756 -747 -1375 -1361 -1852 -1832
-1858 -1836 -3 -3 -12 -13 -20 -22 -12 -16 -11 -18 4 -18 9 0 166 148 348 329
183 181 427 423 542 536 116 114 518 512 894 884 375 372 801 792 944 933 172
169 258 261 252 267 -7 6 -127 -106 -350 -326z"/>
<path d="M2902 1787 c-754 -754 -1372 -1375 -1372 -1380 0 -4 6 -7 13 -7 16 0
2747 2731 2747 2748 0 6 -3 12 -8 12 -4 0 -625 -618 -1380 -1373z"/>
<path d="M4758 3058 c-58 -56 -426 -421 -819 -809 -393 -389 -788 -780 -879
-869 -637 -627 -978 -970 -969 -976 6 -3 26 9 46 27 94 91 423 416 1078 1064
396 392 785 777 865 855 485 476 799 795 791 803 -5 5 -52 -34 -113 -95z"/>
<path d="M3137 1549 c-768 -768 -1222 -1229 -1210 -1229 11 0 487 469 1232
1214 667 667 1213 1216 1213 1220 0 4 -2 10 -4 15 -2 5 -556 -544 -1231 -1220z"/>
<path d="M4640 2468 c-173 -171 -622 -615 -998 -987 -376 -372 -795 -785 -930
-918 -169 -166 -241 -243 -227 -243 21 1 69 47 1290 1255 396 392 825 816 954
942 148 146 232 235 230 245 -3 11 -109 -87 -319 -294z"/>
<path d="M3370 1308 c-581 -583 -988 -998 -977 -998 21 0 1987 1963 1987 1985
0 8 -3 14 -7 13 -5 -1 -456 -451 -1003 -1000z"/>
<path d="M4923 2278 c-26 -29 -839 -834 -1703 -1687 -185 -183 -277 -281 -263
-279 13 2 156 136 350 327 1141 1125 1663 1646 1663 1658 0 21 -15 15 -47 -19z"/>
<path d="M3610 1075 c-400 -400 -615 -622 -600 -618 15 3 259 238 613 592 521
519 629 632 615 647 -2 2 -285 -278 -628 -621z"/>
<path d="M4429 1313 c-215 -214 -499 -495 -632 -626 -168 -165 -232 -234 -210
-225 18 7 146 125 295 272 798 785 974 966 943 966 -3 0 -181 -174 -396 -387z"/>
</g>
</svg>
