<?xml version="1.0" encoding="UTF-8"?>
<svg width="156px" height="20px" viewBox="0 0 156 20" version="1.1" xmlns="http://www.w3.org/2000/svg" xmlns:xlink="http://www.w3.org/1999/xlink">
    <!-- Generator: Sketch 63.1 (92452) - https://sketch.com -->
    <title>Group 141</title>
    <desc>Created with Sketch.</desc>
    <defs>
        <polygon id="path-1" points="0.231563636 0.0424242424 13.7384242 0.0424242424 13.7384242 12.2666667 0.231563636 12.2666667"></polygon>
        <path d="M0.112242424,7.52824242 C0.112242424,11.6179394 3.42763636,14.9330909 7.51733333,14.9330909 L7.51733333,14.9330909 C11.6067879,14.9330909 14.9219394,11.6179394 14.9219394,7.52824242 L14.9219394,7.52824242 C14.9219394,3.43854545 11.6067879,0.123393939 7.51733333,0.123393939 L7.51733333,0.123393939 C3.42763636,0.123393939 0.112242424,3.43854545 0.112242424,7.52824242" id="path-3"></path>
        <path d="M0.112242424,7.52824242 C0.112242424,11.6179394 3.42763636,14.9330909 7.51733333,14.9330909 L7.51733333,14.9330909 C11.6067879,14.9330909 14.9219394,11.6179394 14.9219394,7.52824242 L14.9219394,7.52824242 C14.9219394,3.43854545 11.6067879,0.123393939 7.51733333,0.123393939 L7.51733333,0.123393939 C3.42763636,0.123393939 0.112242424,3.43854545 0.112242424,7.52824242" id="path-5"></path>
        <path d="M0.112242424,7.52824242 C0.112242424,11.6179394 3.42763636,14.9330909 7.51733333,14.9330909 L7.51733333,14.9330909 C11.6067879,14.9330909 14.9219394,11.6179394 14.9219394,7.52824242 L14.9219394,7.52824242 C14.9219394,3.43854545 11.6067879,0.123393939 7.51733333,0.123393939 L7.51733333,0.123393939 C3.42763636,0.123393939 0.112242424,3.43854545 0.112242424,7.52824242" id="path-7"></path>
        <path d="M0.112242424,7.52824242 C0.112242424,11.6179394 3.42763636,14.9330909 7.51733333,14.9330909 L7.51733333,14.9330909 C11.6067879,14.9330909 14.9219394,11.6179394 14.9219394,7.52824242 L14.9219394,7.52824242 C14.9219394,3.43854545 11.6067879,0.123393939 7.51733333,0.123393939 L7.51733333,0.123393939 C3.42763636,0.123393939 0.112242424,3.43854545 0.112242424,7.52824242" id="path-9"></path>
        <path d="M0.112242424,7.52824242 C0.112242424,11.6179394 3.42763636,14.9330909 7.51733333,14.9330909 L7.51733333,14.9330909 C11.6067879,14.9330909 14.9219394,11.6179394 14.9219394,7.52824242 L14.9219394,7.52824242 C14.9219394,3.43854545 11.6067879,0.123393939 7.51733333,0.123393939 L7.51733333,0.123393939 C3.42763636,0.123393939 0.112242424,3.43854545 0.112242424,7.52824242" id="path-11"></path>
        <path d="M0.112242424,7.52824242 C0.112242424,11.6179394 3.42763636,14.9330909 7.51733333,14.9330909 L7.51733333,14.9330909 C11.6067879,14.9330909 14.9219394,11.6179394 14.9219394,7.52824242 L14.9219394,7.52824242 C14.9219394,3.43854545 11.6067879,0.123393939 7.51733333,0.123393939 L7.51733333,0.123393939 C3.42763636,0.123393939 0.112242424,3.43854545 0.112242424,7.52824242" id="path-13"></path>
        <path d="M0.112242424,7.52824242 C0.112242424,11.6179394 3.42763636,14.9330909 7.51733333,14.9330909 L7.51733333,14.9330909 C11.6067879,14.9330909 14.9219394,11.6179394 14.9219394,7.52824242 L14.9219394,7.52824242 C14.9219394,3.43854545 11.6067879,0.123393939 7.51733333,0.123393939 L7.51733333,0.123393939 C3.42763636,0.123393939 0.112242424,3.43854545 0.112242424,7.52824242" id="path-15"></path>
        <path d="M0.112242424,7.52824242 C0.112242424,11.6179394 3.42763636,14.9330909 7.51733333,14.9330909 L7.51733333,14.9330909 C11.6067879,14.9330909 14.9219394,11.6179394 14.9219394,7.52824242 L14.9219394,7.52824242 C14.9219394,3.43854545 11.6067879,0.123393939 7.51733333,0.123393939 L7.51733333,0.123393939 C3.42763636,0.123393939 0.112242424,3.43854545 0.112242424,7.52824242" id="path-17"></path>
        <path d="M0.112242424,7.52824242 C0.112242424,11.6179394 3.42763636,14.9330909 7.51733333,14.9330909 L7.51733333,14.9330909 C11.6067879,14.9330909 14.9219394,11.6179394 14.9219394,7.52824242 L14.9219394,7.52824242 C14.9219394,3.43854545 11.6067879,0.123393939 7.51733333,0.123393939 L7.51733333,0.123393939 C3.42763636,0.123393939 0.112242424,3.43854545 0.112242424,7.52824242" id="path-19"></path>
        <path d="M0.112242424,7.52824242 C0.112242424,11.6179394 3.42763636,14.9330909 7.51733333,14.9330909 L7.51733333,14.9330909 C11.6067879,14.9330909 14.9219394,11.6179394 14.9219394,7.52824242 L14.9219394,7.52824242 C14.9219394,3.43854545 11.6067879,0.123393939 7.51733333,0.123393939 L7.51733333,0.123393939 C3.42763636,0.123393939 0.112242424,3.43854545 0.112242424,7.52824242" id="path-21"></path>
        <path d="M0.112242424,7.52824242 C0.112242424,11.6179394 3.42763636,14.9330909 7.51733333,14.9330909 L7.51733333,14.9330909 C11.6067879,14.9330909 14.9219394,11.6179394 14.9219394,7.52824242 L14.9219394,7.52824242 C14.9219394,3.43854545 11.6067879,0.123393939 7.51733333,0.123393939 L7.51733333,0.123393939 C3.42763636,0.123393939 0.112242424,3.43854545 0.112242424,7.52824242" id="path-23"></path>
        <path d="M0.112242424,7.52824242 C0.112242424,11.6179394 3.42763636,14.9330909 7.51733333,14.9330909 L7.51733333,14.9330909 C11.6067879,14.9330909 14.9219394,11.6179394 14.9219394,7.52824242 L14.9219394,7.52824242 C14.9219394,3.43854545 11.6067879,0.123393939 7.51733333,0.123393939 L7.51733333,0.123393939 C3.42763636,0.123393939 0.112242424,3.43854545 0.112242424,7.52824242" id="path-25"></path>
        <path d="M0.112242424,7.52824242 C0.112242424,11.6179394 3.42763636,14.9330909 7.51733333,14.9330909 L7.51733333,14.9330909 C11.6067879,14.9330909 14.9219394,11.6179394 14.9219394,7.52824242 L14.9219394,7.52824242 C14.9219394,3.43854545 11.6067879,0.123393939 7.51733333,0.123393939 L7.51733333,0.123393939 C3.42763636,0.123393939 0.112242424,3.43854545 0.112242424,7.52824242" id="path-27"></path>
        <path d="M0.112242424,7.52824242 C0.112242424,11.6179394 3.42763636,14.9330909 7.51733333,14.9330909 L7.51733333,14.9330909 C11.6067879,14.9330909 14.9219394,11.6179394 14.9219394,7.52824242 L14.9219394,7.52824242 C14.9219394,3.43854545 11.6067879,0.123393939 7.51733333,0.123393939 L7.51733333,0.123393939 C3.42763636,0.123393939 0.112242424,3.43854545 0.112242424,7.52824242" id="path-29"></path>
        <path d="M0.112242424,7.52824242 C0.112242424,11.6179394 3.42763636,14.9330909 7.51733333,14.9330909 L7.51733333,14.9330909 C11.6067879,14.9330909 14.9219394,11.6179394 14.9219394,7.52824242 L14.9219394,7.52824242 C14.9219394,3.43854545 11.6067879,0.123393939 7.51733333,0.123393939 L7.51733333,0.123393939 C3.42763636,0.123393939 0.112242424,3.43854545 0.112242424,7.52824242" id="path-31"></path>
        <path d="M0.112242424,7.52824242 C0.112242424,11.6179394 3.42763636,14.9330909 7.51733333,14.9330909 L7.51733333,14.9330909 C11.6067879,14.9330909 14.9219394,11.6179394 14.9219394,7.52824242 L14.9219394,7.52824242 C14.9219394,3.43854545 11.6067879,0.123393939 7.51733333,0.123393939 L7.51733333,0.123393939 C3.42763636,0.123393939 0.112242424,3.43854545 0.112242424,7.52824242" id="path-33"></path>
        <path d="M0.112242424,7.52824242 C0.112242424,11.6179394 3.42763636,14.9330909 7.51733333,14.9330909 L7.51733333,14.9330909 C11.6067879,14.9330909 14.9219394,11.6179394 14.9219394,7.52824242 L14.9219394,7.52824242 C14.9219394,3.43854545 11.6067879,0.123393939 7.51733333,0.123393939 L7.51733333,0.123393939 C3.42763636,0.123393939 0.112242424,3.43854545 0.112242424,7.52824242" id="path-35"></path>
        <path d="M0.112242424,7.52824242 C0.112242424,11.6179394 3.42763636,14.9330909 7.51733333,14.9330909 L7.51733333,14.9330909 C11.6067879,14.9330909 14.9219394,11.6179394 14.9219394,7.52824242 L14.9219394,7.52824242 C14.9219394,3.43854545 11.6067879,0.123393939 7.51733333,0.123393939 L7.51733333,0.123393939 C3.42763636,0.123393939 0.112242424,3.43854545 0.112242424,7.52824242" id="path-37"></path>
        <path d="M0.112242424,7.52824242 C0.112242424,11.6179394 3.42763636,14.9330909 7.51733333,14.9330909 L7.51733333,14.9330909 C11.6067879,14.9330909 14.9219394,11.6179394 14.9219394,7.52824242 L14.9219394,7.52824242 C14.9219394,3.43854545 11.6067879,0.123393939 7.51733333,0.123393939 L7.51733333,0.123393939 C3.42763636,0.123393939 0.112242424,3.43854545 0.112242424,7.52824242" id="path-39"></path>
        <path d="M0.0259393939,7.52824242 C0.0259393939,11.6179394 3.34109091,14.9330909 7.4310303,14.9330909 L7.4310303,14.9330909 C11.5204848,14.9330909 14.8361212,11.6179394 14.8361212,7.52824242 L14.8361212,7.52824242 C14.8361212,3.43854545 11.5204848,0.123393939 7.4310303,0.123393939 L7.4310303,0.123393939 C3.34109091,0.123393939 0.0259393939,3.43854545 0.0259393939,7.52824242" id="path-41"></path>
        <path d="M0.0259393939,7.52824242 C0.0259393939,11.6179394 3.34109091,14.9330909 7.4310303,14.9330909 L7.4310303,14.9330909 C11.5204848,14.9330909 14.8361212,11.6179394 14.8361212,7.52824242 L14.8361212,7.52824242 C14.8361212,3.43854545 11.5204848,0.123393939 7.4310303,0.123393939 L7.4310303,0.123393939 C3.34109091,0.123393939 0.0259393939,3.43854545 0.0259393939,7.52824242" id="path-43"></path>
        <path d="M0.0259393939,7.52824242 C0.0259393939,11.6179394 3.34109091,14.9330909 7.4310303,14.9330909 L7.4310303,14.9330909 C11.5204848,14.9330909 14.8361212,11.6179394 14.8361212,7.52824242 L14.8361212,7.52824242 C14.8361212,3.43854545 11.5204848,0.123393939 7.4310303,0.123393939 L7.4310303,0.123393939 C3.34109091,0.123393939 0.0259393939,3.43854545 0.0259393939,7.52824242" id="path-45"></path>
        <path d="M0.0259393939,7.52824242 C0.0259393939,11.6179394 3.34109091,14.9330909 7.4310303,14.9330909 L7.4310303,14.9330909 C11.5204848,14.9330909 14.8361212,11.6179394 14.8361212,7.52824242 L14.8361212,7.52824242 C14.8361212,3.43854545 11.5204848,0.123393939 7.4310303,0.123393939 L7.4310303,0.123393939 C3.34109091,0.123393939 0.0259393939,3.43854545 0.0259393939,7.52824242" id="path-47"></path>
        <path d="M0.0259393939,7.52824242 C0.0259393939,11.6179394 3.34109091,14.9330909 7.4310303,14.9330909 L7.4310303,14.9330909 C11.5204848,14.9330909 14.8361212,11.6179394 14.8361212,7.52824242 L14.8361212,7.52824242 C14.8361212,3.43854545 11.5204848,0.123393939 7.4310303,0.123393939 L7.4310303,0.123393939 C3.34109091,0.123393939 0.0259393939,3.43854545 0.0259393939,7.52824242" id="path-49"></path>
        <path d="M0.0259393939,7.52824242 C0.0259393939,11.6179394 3.34109091,14.9330909 7.4310303,14.9330909 L7.4310303,14.9330909 C11.5204848,14.9330909 14.8361212,11.6179394 14.8361212,7.52824242 L14.8361212,7.52824242 C14.8361212,3.43854545 11.5204848,0.123393939 7.4310303,0.123393939 L7.4310303,0.123393939 C3.34109091,0.123393939 0.0259393939,3.43854545 0.0259393939,7.52824242" id="path-51"></path>
        <path d="M0.0259393939,7.52824242 C0.0259393939,11.6179394 3.34109091,14.9330909 7.4310303,14.9330909 L7.4310303,14.9330909 C11.5204848,14.9330909 14.8361212,11.6179394 14.8361212,7.52824242 L14.8361212,7.52824242 C14.8361212,3.43854545 11.5204848,0.123393939 7.4310303,0.123393939 L7.4310303,0.123393939 C3.34109091,0.123393939 0.0259393939,3.43854545 0.0259393939,7.52824242" id="path-53"></path>
        <path d="M0.0259393939,7.52824242 C0.0259393939,11.6179394 3.34109091,14.9330909 7.4310303,14.9330909 L7.4310303,14.9330909 C11.5204848,14.9330909 14.8361212,11.6179394 14.8361212,7.52824242 L14.8361212,7.52824242 C14.8361212,3.43854545 11.5204848,0.123393939 7.4310303,0.123393939 L7.4310303,0.123393939 C3.34109091,0.123393939 0.0259393939,3.43854545 0.0259393939,7.52824242" id="path-55"></path>
        <path d="M0.0259393939,7.52824242 C0.0259393939,11.6179394 3.34109091,14.9330909 7.4310303,14.9330909 L7.4310303,14.9330909 C11.5204848,14.9330909 14.8361212,11.6179394 14.8361212,7.52824242 L14.8361212,7.52824242 C14.8361212,3.43854545 11.5204848,0.123393939 7.4310303,0.123393939 L7.4310303,0.123393939 C3.34109091,0.123393939 0.0259393939,3.43854545 0.0259393939,7.52824242" id="path-57"></path>
        <path d="M0.0259393939,7.52824242 C0.0259393939,11.6179394 3.34109091,14.9330909 7.4310303,14.9330909 L7.4310303,14.9330909 C11.5204848,14.9330909 14.8361212,11.6179394 14.8361212,7.52824242 L14.8361212,7.52824242 C14.8361212,3.43854545 11.5204848,0.123393939 7.4310303,0.123393939 L7.4310303,0.123393939 C3.34109091,0.123393939 0.0259393939,3.43854545 0.0259393939,7.52824242" id="path-59"></path>
        <path d="M0.0259393939,7.52824242 C0.0259393939,11.6179394 3.34109091,14.9330909 7.4310303,14.9330909 L7.4310303,14.9330909 C11.5204848,14.9330909 14.8361212,11.6179394 14.8361212,7.52824242 L14.8361212,7.52824242 C14.8361212,3.43854545 11.5204848,0.123393939 7.4310303,0.123393939 L7.4310303,0.123393939 C3.34109091,0.123393939 0.0259393939,3.43854545 0.0259393939,7.52824242" id="path-61"></path>
        <path d="M0.0259393939,7.52824242 C0.0259393939,11.6179394 3.34109091,14.9330909 7.4310303,14.9330909 L7.4310303,14.9330909 C11.5204848,14.9330909 14.8361212,11.6179394 14.8361212,7.52824242 L14.8361212,7.52824242 C14.8361212,3.43854545 11.5204848,0.123393939 7.4310303,0.123393939 L7.4310303,0.123393939 C3.34109091,0.123393939 0.0259393939,3.43854545 0.0259393939,7.52824242" id="path-63"></path>
        <path d="M0.0259393939,7.52824242 C0.0259393939,11.6179394 3.34109091,14.9330909 7.4310303,14.9330909 L7.4310303,14.9330909 C11.5204848,14.9330909 14.8361212,11.6179394 14.8361212,7.52824242 L14.8361212,7.52824242 C14.8361212,3.43854545 11.5204848,0.123393939 7.4310303,0.123393939 L7.4310303,0.123393939 C3.34109091,0.123393939 0.0259393939,3.43854545 0.0259393939,7.52824242" id="path-65"></path>
        <path d="M0.0259393939,7.52824242 C0.0259393939,11.6179394 3.34109091,14.9330909 7.4310303,14.9330909 L7.4310303,14.9330909 C11.5204848,14.9330909 14.8361212,11.6179394 14.8361212,7.52824242 L14.8361212,7.52824242 C14.8361212,3.43854545 11.5204848,0.123393939 7.4310303,0.123393939 L7.4310303,0.123393939 C3.34109091,0.123393939 0.0259393939,3.43854545 0.0259393939,7.52824242" id="path-67"></path>
        <path d="M0.0259393939,7.52824242 C0.0259393939,11.6179394 3.34109091,14.9330909 7.4310303,14.9330909 L7.4310303,14.9330909 C11.5204848,14.9330909 14.8361212,11.6179394 14.8361212,7.52824242 L14.8361212,7.52824242 C14.8361212,3.43854545 11.5204848,0.123393939 7.4310303,0.123393939 L7.4310303,0.123393939 C3.34109091,0.123393939 0.0259393939,3.43854545 0.0259393939,7.52824242" id="path-69"></path>
        <path d="M0.0259393939,7.52824242 C0.0259393939,11.6179394 3.34109091,14.9330909 7.4310303,14.9330909 L7.4310303,14.9330909 C11.5204848,14.9330909 14.8361212,11.6179394 14.8361212,7.52824242 L14.8361212,7.52824242 C14.8361212,3.43854545 11.5204848,0.123393939 7.4310303,0.123393939 L7.4310303,0.123393939 C3.34109091,0.123393939 0.0259393939,3.43854545 0.0259393939,7.52824242" id="path-71"></path>
        <path d="M0.0259393939,7.52824242 C0.0259393939,11.6179394 3.34109091,14.9330909 7.4310303,14.9330909 L7.4310303,14.9330909 C11.5204848,14.9330909 14.8361212,11.6179394 14.8361212,7.52824242 L14.8361212,7.52824242 C14.8361212,3.43854545 11.5204848,0.123393939 7.4310303,0.123393939 L7.4310303,0.123393939 C3.34109091,0.123393939 0.0259393939,3.43854545 0.0259393939,7.52824242" id="path-73"></path>
        <path d="M0.0259393939,7.52824242 C0.0259393939,11.6179394 3.34109091,14.9330909 7.4310303,14.9330909 L7.4310303,14.9330909 C11.5204848,14.9330909 14.8361212,11.6179394 14.8361212,7.52824242 L14.8361212,7.52824242 C14.8361212,3.43854545 11.5204848,0.123393939 7.4310303,0.123393939 L7.4310303,0.123393939 C3.34109091,0.123393939 0.0259393939,3.43854545 0.0259393939,7.52824242" id="path-75"></path>
        <path d="M0.0259393939,7.52824242 C0.0259393939,11.6179394 3.34109091,14.9330909 7.4310303,14.9330909 L7.4310303,14.9330909 C11.5204848,14.9330909 14.8361212,11.6179394 14.8361212,7.52824242 L14.8361212,7.52824242 C14.8361212,3.43854545 11.5204848,0.123393939 7.4310303,0.123393939 L7.4310303,0.123393939 C3.34109091,0.123393939 0.0259393939,3.43854545 0.0259393939,7.52824242" id="path-77"></path>
    </defs>
    <g id="Symbols" stroke="none" stroke-width="1" fill="none" fill-rule="evenodd">
        <g id="menu/mobile" transform="translate(-109.000000, -19.000000)">
            <g id="Group-141" transform="translate(109.000000, 19.000000)">
                <g id="Group-24" transform="translate(0.000000, 1.617648)">
                    <path d="M73.321503,9.62310303 C73.0090182,9.93558788 72.5891394,10.0909818 72.0645333,10.0909818 C71.5387152,10.0909818 71.1202909,9.93558788 70.8078061,9.62310303 C70.4953212,9.31061818 70.3379879,8.89049697 70.3379879,8.36613333 C70.3379879,7.84007273 70.4953212,7.42164848 70.8078061,7.10916364 C71.1202909,6.79667879 71.5387152,6.63958788 72.0645333,6.63958788 C72.5891394,6.63958788 73.0090182,6.79667879 73.321503,7.10916364 C73.6339879,7.42164848 73.7893818,7.84007273 73.7893818,8.36613333 C73.7893818,8.89049697 73.6339879,9.31061818 73.321503,9.62310303 M72.0645333,2.93243636 C69.0635636,2.93243636 66.6325333,5.36516364 66.6325333,8.36613333 C66.6325333,11.3654061 69.0635636,13.7981333 72.0645333,13.7981333 C75.0638061,13.7981333 77.4967758,11.3654061 77.4967758,8.36613333 C77.4967758,5.36516364 75.0638061,2.93243636 72.0645333,2.93243636" id="Fill-1" fill="#1B42D8"></path>
                    <path d="M2.46070303,13.563903 C1.50191515,13.4077818 0.738521212,13.1803879 0.170278788,12.8819636 L0.170278788,9.64390303 C0.766884848,9.98475152 1.49827879,10.275903 2.36470303,10.5173576 C3.23088485,10.7590545 4.00518788,10.8795394 4.68712727,10.8795394 C5.0134303,10.8795394 5.24785455,10.8654788 5.38991515,10.8368727 C5.53173333,10.8087515 5.60300606,10.7447515 5.60300606,10.6451152 C5.60300606,10.5743273 5.53900606,10.5173576 5.41124848,10.4746909 C5.28373333,10.4322667 5.11282424,10.3896 4.90021818,10.3469333 C4.38870303,10.2477818 3.93391515,10.1411152 3.53633939,10.0274182 C2.24373333,9.62984242 1.33149091,9.17190303 0.799127273,8.65311515 C0.266278788,8.13481212 9.6969697e-05,7.39978182 9.6969697e-05,6.44802424 C9.6969697e-05,5.25529697 0.468460606,4.37093333 1.40591515,3.79590303 C2.34361212,3.22038788 3.63573333,2.93287273 5.28373333,2.93287273 C6.05052121,2.93287273 6.89900606,3.01820606 7.8294303,3.1886303 C8.7593697,3.35905455 9.44494545,3.57941818 9.88518788,3.84899394 L9.88518788,7.08729697 C9.45924848,6.78911515 8.8553697,6.52996364 8.07427879,6.30984242 C7.29318788,6.08972121 6.59694545,5.97941818 5.98652121,5.97941818 C5.70215758,5.97941818 5.46797576,6.00075152 5.28373333,6.04341818 C5.09876364,6.08608485 5.00664242,6.14281212 5.00664242,6.21384242 C5.00664242,6.28511515 5.08446061,6.34887273 5.24082424,6.4056 C5.39694545,6.4625697 5.64567273,6.51929697 5.98652121,6.57602424 C6.65391515,6.70378182 7.03064242,6.78208485 7.11573333,6.81044848 C8.05294545,7.05214545 8.77367273,7.33238788 9.27815758,7.65190303 C9.78215758,7.97141818 10.1302788,8.34426667 10.3220364,8.77044848 C10.5137939,9.19638788 10.6095515,9.73626667 10.6095515,10.3896 C10.6095515,11.4264485 10.1479758,12.2536 9.22458182,12.8715394 C8.3014303,13.4892364 6.9734303,13.7983273 5.24082424,13.7983273 C4.34603636,13.7983273 3.41924848,13.7200242 2.46070303,13.563903" id="Fill-3" fill="#1B42D8"></path>
                    <path d="M12.4526545,17.5691152 C11.8630788,17.4837818 11.4332606,17.3773576 11.1639273,17.2496 L11.1639273,13.7131152 C11.6039273,13.8973576 12.1081697,13.9899636 12.6764121,13.9899636 C13.0880485,13.9899636 13.4112,13.9048727 13.6458667,13.7344485 C13.8800485,13.5640242 14.0611394,13.3082667 14.188897,12.9674182 L14.2955636,12.6692364 L9.86404848,3.25250909 L14.6577455,3.25250909 L16.8308364,9.08984242 L18.8972606,3.25250909 L23.6907152,3.25250909 L19.7282909,13.4786909 C19.1743515,14.9131152 18.4531394,15.9746909 17.5658667,16.6636606 C16.6781091,17.3523879 15.5312,17.6968727 14.124897,17.6968727 C13.5993212,17.6968727 13.0419879,17.6544485 12.4526545,17.5691152" id="Fill-5" fill="#1B42D8"></path>
                    <path d="M24.5428606,3.25248485 L28.9528,3.25248485 L28.9528,4.10484848 C29.762497,3.32375758 30.7777697,2.9329697 31.9995879,2.9329697 C32.7237091,2.9329697 33.3096485,3.0289697 33.7571636,3.22048485 C34.2044364,3.41224242 34.5843152,3.7 34.8968,4.08351515 C35.3229818,3.72860606 35.8199515,3.44787879 36.3879515,3.24181818 C36.9559515,3.036 37.5457697,2.9329697 38.1564364,2.9329697 C39.5627394,2.9329697 40.5566788,3.29515152 41.1389818,4.01951515 C41.7212848,4.74387879 42.0126788,5.78775758 42.0126788,7.15139394 L42.0126788,13.4786667 L37.4323152,13.4786667 L37.4323152,7.85418182 C37.4323152,7.44254545 37.3646788,7.13733333 37.2296485,6.93830303 C37.0946182,6.73951515 36.8497697,6.63987879 36.4948606,6.63987879 C36.1964364,6.63987879 35.9263758,6.71115152 35.6851636,6.8529697 L35.6851636,13.4786667 L31.1045576,13.4786667 L31.1045576,7.62 C31.1045576,7.29321212 31.0408,7.04836364 30.9128,6.8849697 C30.7850424,6.72181818 30.5719515,6.63987879 30.2740121,6.63987879 C29.7906182,6.63987879 29.407103,6.90993939 29.1234667,7.44933333 L29.1234667,13.4786667 L24.5428606,13.4786667 L24.5428606,3.25248485 Z" id="Fill-7" fill="#1B42D8"></path>
                    <path d="M51.2474182,9.64429091 C50.927903,9.9422303 50.4847515,10.0918061 49.9165091,10.0918061 C49.5465697,10.0918061 49.2064485,10.0062303 48.8937212,9.83604848 C48.5809939,9.66465455 48.3468121,9.43071515 48.1906909,9.13301818 L48.1906909,7.59871515 C48.3468121,7.30077576 48.5809939,7.06562424 48.8937212,6.89568485 C49.2064485,6.72550303 49.5465697,6.63992727 49.9165091,6.63992727 C50.4847515,6.63992727 50.927903,6.78247273 51.2474182,7.06562424 C51.5669333,7.34998788 51.7269333,7.77665455 51.7269333,8.3441697 C51.7269333,8.91241212 51.5669333,9.34513939 51.2474182,9.64429091 M56.0200242,5.51095758 C55.5725091,4.68671515 54.9412364,4.05107879 54.1237818,3.60356364 C53.3065697,3.15604848 52.3453576,2.93350303 51.2372364,2.93350303 C50.6263273,2.93350303 50.0340848,3.03968485 49.4588121,3.25204848 C48.8835394,3.46538182 48.4040242,3.74974545 48.0202667,4.10465455 L48.0202667,3.25204848 L43.3974788,3.25204848 L43.3974788,17.4491394 L48.1906909,17.4491394 L48.1906909,12.8392 C48.5317818,13.1235636 48.975903,13.3541091 49.5228121,13.5320485 C50.0694788,13.7090182 50.6413576,13.7979879 51.2372364,13.7979879 C52.3308121,13.7979879 53.2896,13.5708364 54.1136,13.1165333 C54.9366303,12.6622303 55.5725091,12.0232 56.0200242,11.1989576 C56.467297,10.3759273 56.6910545,9.43071515 56.6910545,8.36574545 C56.6910545,7.28598788 56.467297,6.3352 56.0200242,5.51095758" id="Fill-9" fill="#1B42D8"></path>
                    <path d="M59.3148848,12.6265212 C58.6045818,11.8454303 58.2496727,10.8015515 58.2496727,9.49464242 L58.2496727,6.40567273 L56.8651879,6.40567273 L56.8651879,3.25246061 L58.2496727,3.25246061 L58.2496727,0.184581818 L63.0433697,0.184581818 L63.0433697,3.25246061 L65.2591273,3.25246061 L65.2591273,6.40567273 L63.0433697,6.40567273 L63.0433697,8.79161212 C63.0433697,9.26046061 63.1284606,9.59427879 63.2991273,9.79306667 C63.4695515,9.99209697 63.7604606,10.0912485 64.1723394,10.0912485 C64.6976727,10.0912485 65.2019152,9.94215758 65.6850667,9.64373333 L65.6850667,13.1804606 C65.2445818,13.3935515 64.7830061,13.5496727 64.300097,13.6490667 C63.8171879,13.7482182 63.2065212,13.7981576 62.468097,13.7981576 C61.076097,13.7981576 60.0251879,13.4078545 59.3148848,12.6265212" id="Fill-11" fill="#1B42D8"></path>
                    <path d="M101.523927,12.6265212 C100.813382,11.8454303 100.458473,10.8015515 100.458473,9.49464242 L100.458473,6.40567273 L99.0739879,6.40567273 L99.0739879,3.25246061 L100.458473,3.25246061 L100.458473,0.184581818 L105.25217,0.184581818 L105.25217,3.25246061 L107.467927,3.25246061 L107.467927,6.40567273 L105.25217,6.40567273 L105.25217,8.79161212 C105.25217,9.26046061 105.337261,9.59427879 105.507927,9.79306667 C105.678352,9.99209697 105.969018,10.0912485 106.381382,10.0912485 C106.906473,10.0912485 107.410958,9.94215758 107.893867,9.64373333 L107.893867,13.1804606 C107.453382,13.3935515 106.991806,13.5496727 106.508897,13.6490667 C106.025988,13.7482182 105.415321,13.7981576 104.676897,13.7981576 C103.284897,13.7981576 102.233988,13.4078545 101.523927,12.6265212" id="Fill-13" fill="#1B42D8"></path>
                    <path d="M109.474206,3.25248485 L114.097236,3.25248485 L114.097236,4.16860606 C114.494812,3.79939394 115.034691,3.50121212 115.716388,3.27381818 C116.398327,3.04666667 117.129721,2.9329697 117.910812,2.9329697 L117.910812,6.63987879 C117.072752,6.63987879 116.316388,6.75018182 115.641964,6.97006061 C114.967055,7.19066667 114.509358,7.49951515 114.267661,7.89684848 L114.267661,13.4786667 L109.474206,13.4786667 L109.474206,3.25248485 Z" id="Fill-15" fill="#1B42D8"></path>
                    <path d="M124.178982,10.9860364 C124.45583,10.8725818 124.672315,10.7302788 124.828921,10.560097 L124.828921,9.87815758 C124.360073,9.60858182 123.855588,9.47355152 123.315952,9.47355152 C123.01777,9.47355152 122.783588,9.55161212 122.612921,9.70797576 C122.442739,9.86433939 122.357406,10.0699152 122.357406,10.3256727 C122.357406,10.5673697 122.438861,10.7659152 122.602497,10.9220364 C122.765406,11.0786424 123.003467,11.1564606 123.315952,11.1564606 C123.614376,11.1564606 123.901891,11.0999758 124.178982,10.9860364 M118.586497,12.9142788 C117.790861,12.3249455 117.393527,11.4621576 117.393527,10.3256727 C117.393527,9.17512727 117.780194,8.30167273 118.554497,7.70506667 C119.328558,7.10870303 120.475467,6.81027879 121.995224,6.81027879 C122.449527,6.81027879 122.946739,6.86361212 123.486618,6.97027879 C124.026012,7.07670303 124.473527,7.20130909 124.828921,7.34288485 L124.828921,7.17270303 C124.828921,6.80349091 124.594255,6.51209697 124.125648,6.29900606 C123.657042,6.08615758 123.039103,5.97949091 122.272073,5.97949091 C121.036436,5.97949091 119.907467,6.23524848 118.884679,6.74652121 L118.884679,3.69997576 C119.353527,3.47282424 119.971467,3.28809697 120.738255,3.14603636 C121.505285,3.00421818 122.350133,2.93294545 123.27377,2.93294545 C125.318618,2.93294545 126.888073,3.3094303 127.981891,4.06191515 C129.075224,4.81512727 129.622133,5.88033939 129.622133,7.25779394 L129.622133,13.4786424 L125.10577,13.4786424 L125.10577,12.7331879 C124.778982,13.0313697 124.314012,13.2837333 123.710133,13.4893091 C123.106255,13.6951273 122.46383,13.7984 121.782133,13.7984 C120.446861,13.7984 119.381648,13.5033697 118.586497,12.9142788" id="Fill-17" fill="#1B42D8"></path>
                    <path d="M132.034109,12.4028121 C130.933261,11.4728727 130.382958,10.1269333 130.382958,8.36572121 C130.382958,6.60475152 130.933261,5.25881212 132.034109,4.32838788 C133.134715,3.39820606 134.651079,2.93299394 136.582715,2.93299394 C137.4632,2.93299394 138.315321,3.01469091 139.139321,3.17784242 C139.962836,3.34147879 140.623442,3.57202424 141.120412,3.87044848 L141.120412,7.53469091 C140.694473,7.22244848 140.186594,6.98075152 139.597261,6.81032727 C139.007927,6.63990303 138.407442,6.5545697 137.797018,6.5545697 C137.058594,6.5545697 136.465382,6.71117576 136.018352,7.02341818 C135.570836,7.33614545 135.347079,7.78341818 135.347079,8.36572121 C135.347079,8.96208485 135.570836,9.41323636 136.018352,9.71844848 C136.465382,10.023903 137.058594,10.1763879 137.797018,10.1763879 C138.393382,10.1763879 138.993382,10.087903 139.597261,9.91020606 C140.200897,9.73275152 140.74417,9.4806303 141.227079,9.15384242 L141.227079,12.8183273 C140.715806,13.1165091 140.04817,13.3545697 139.224412,13.5320242 C138.400655,13.7094788 137.52017,13.7982061 136.582715,13.7982061 C134.651079,13.7982061 133.134715,13.3332364 132.034109,12.4028121" id="Fill-19" fill="#1B42D8"></path>
                    <g id="Group-23" transform="translate(142.060606, 1.212121)">
                        <mask id="mask-2" fill="white">
                            <use xlink:href="#path-1"></use>
                        </mask>
                        <g id="Clip-22"></g>
                        <polygon id="Fill-21" fill="#1B42D8" mask="url(#mask-2)" points="9.58477576 6.91878788 13.1632 2.04 7.70938182 2.04 5.02429091 5.70424242 5.02429091 0.0424242424 0.231563636 0.0424242424 0.231563636 12.2666667 5.02429091 12.2666667 5.02429091 8.06933333 8.28465455 12.2666667 13.7387152 12.2666667"></polygon>
                    </g>
                </g>
                <g id="Group-82" transform="translate(81.696970, 0.163103)">
                    <g id="Group-27">
                        <mask id="mask-4" fill="white">
                            <use xlink:href="#path-3"></use>
                        </mask>
                        <g id="Clip-26"></g>
                        <line x1="11.6134061" y1="16.2586424" x2="28.1528" y2="-0.280751515" id="Stroke-25" stroke="#1B42D8" stroke-width="0.5" mask="url(#mask-4)"></line>
                    </g>
                    <g id="Group-30">
                        <mask id="mask-6" fill="white">
                            <use xlink:href="#path-5"></use>
                        </mask>
                        <g id="Clip-29"></g>
                        <line x1="10.0130182" y1="16.2586424" x2="26.5521697" y2="-0.280751515" id="Stroke-28" stroke="#1B42D8" stroke-width="0.5" mask="url(#mask-6)"></line>
                    </g>
                    <g id="Group-33">
                        <mask id="mask-8" fill="white">
                            <use xlink:href="#path-7"></use>
                        </mask>
                        <g id="Clip-32"></g>
                        <line x1="8.41241212" y1="16.2586424" x2="24.9518061" y2="-0.280751515" id="Stroke-31" stroke="#1B42D8" stroke-width="0.5" mask="url(#mask-8)"></line>
                    </g>
                    <g id="Group-36">
                        <mask id="mask-10" fill="white">
                            <use xlink:href="#path-9"></use>
                        </mask>
                        <g id="Clip-35"></g>
                        <line x1="6.81202424" y1="16.2586424" x2="23.3514182" y2="-0.280751515" id="Stroke-34" stroke="#1B42D8" stroke-width="0.5" mask="url(#mask-10)"></line>
                    </g>
                    <g id="Group-39">
                        <mask id="mask-12" fill="white">
                            <use xlink:href="#path-11"></use>
                        </mask>
                        <g id="Clip-38"></g>
                        <line x1="5.21166061" y1="16.2586424" x2="21.7510545" y2="-0.280751515" id="Stroke-37" stroke="#1B42D8" stroke-width="0.5" mask="url(#mask-12)"></line>
                    </g>
                    <g id="Group-42">
                        <mask id="mask-14" fill="white">
                            <use xlink:href="#path-13"></use>
                        </mask>
                        <g id="Clip-41"></g>
                        <line x1="3.61127273" y1="16.2586424" x2="20.1506667" y2="-0.280751515" id="Stroke-40" stroke="#1B42D8" stroke-width="0.5" mask="url(#mask-14)"></line>
                    </g>
                    <g id="Group-45">
                        <mask id="mask-16" fill="white">
                            <use xlink:href="#path-15"></use>
                        </mask>
                        <g id="Clip-44"></g>
                        <line x1="2.01090909" y1="16.2586424" x2="18.550303" y2="-0.280751515" id="Stroke-43" stroke="#1B42D8" stroke-width="0.5" mask="url(#mask-16)"></line>
                    </g>
                    <g id="Group-48">
                        <mask id="mask-18" fill="white">
                            <use xlink:href="#path-17"></use>
                        </mask>
                        <g id="Clip-47"></g>
                        <line x1="0.410521212" y1="16.2586424" x2="16.9499152" y2="-0.280751515" id="Stroke-46" stroke="#1B42D8" stroke-width="0.5" mask="url(#mask-18)"></line>
                    </g>
                    <g id="Group-51">
                        <mask id="mask-20" fill="white">
                            <use xlink:href="#path-19"></use>
                        </mask>
                        <g id="Clip-50"></g>
                        <line x1="-1.18986667" y1="16.2586424" x2="15.3495273" y2="-0.280751515" id="Stroke-49" stroke="#1B42D8" stroke-width="0.5" mask="url(#mask-20)"></line>
                    </g>
                    <g id="Group-54">
                        <mask id="mask-22" fill="white">
                            <use xlink:href="#path-21"></use>
                        </mask>
                        <g id="Clip-53"></g>
                        <line x1="-2.7902303" y1="16.2586424" x2="13.7491636" y2="-0.280751515" id="Stroke-52" stroke="#1B42D8" stroke-width="0.5" mask="url(#mask-22)"></line>
                    </g>
                    <g id="Group-57">
                        <mask id="mask-24" fill="white">
                            <use xlink:href="#path-23"></use>
                        </mask>
                        <g id="Clip-56"></g>
                        <line x1="-4.39061818" y1="16.2586424" x2="12.1485333" y2="-0.280751515" id="Stroke-55" stroke="#1B42D8" stroke-width="0.5" mask="url(#mask-24)"></line>
                    </g>
                    <g id="Group-60">
                        <mask id="mask-26" fill="white">
                            <use xlink:href="#path-25"></use>
                        </mask>
                        <g id="Clip-59"></g>
                        <line x1="-5.99122424" y1="16.2586424" x2="10.5481697" y2="-0.280751515" id="Stroke-58" stroke="#1B42D8" stroke-width="0.5" mask="url(#mask-26)"></line>
                    </g>
                    <g id="Group-63">
                        <mask id="mask-28" fill="white">
                            <use xlink:href="#path-27"></use>
                        </mask>
                        <g id="Clip-62"></g>
                        <line x1="-7.59161212" y1="16.2586424" x2="8.94778182" y2="-0.280751515" id="Stroke-61" stroke="#1B42D8" stroke-width="0.5" mask="url(#mask-28)"></line>
                    </g>
                    <g id="Group-66">
                        <mask id="mask-30" fill="white">
                            <use xlink:href="#path-29"></use>
                        </mask>
                        <g id="Clip-65"></g>
                        <line x1="-9.192" y1="16.2586424" x2="7.34739394" y2="-0.280751515" id="Stroke-64" stroke="#1B42D8" stroke-width="0.5" mask="url(#mask-30)"></line>
                    </g>
                    <g id="Group-69">
                        <mask id="mask-32" fill="white">
                            <use xlink:href="#path-31"></use>
                        </mask>
                        <g id="Clip-68"></g>
                        <line x1="-10.7923636" y1="16.2586424" x2="5.7470303" y2="-0.280751515" id="Stroke-67" stroke="#1B42D8" stroke-width="0.5" mask="url(#mask-32)"></line>
                    </g>
                    <g id="Group-72">
                        <mask id="mask-34" fill="white">
                            <use xlink:href="#path-33"></use>
                        </mask>
                        <g id="Clip-71"></g>
                        <line x1="-12.3927515" y1="16.2586424" x2="4.14664242" y2="-0.280751515" id="Stroke-70" stroke="#1B42D8" stroke-width="0.5" mask="url(#mask-34)"></line>
                    </g>
                    <g id="Group-75">
                        <mask id="mask-36" fill="white">
                            <use xlink:href="#path-35"></use>
                        </mask>
                        <g id="Clip-74"></g>
                        <line x1="-13.9931152" y1="16.2586424" x2="2.54627879" y2="-0.280751515" id="Stroke-73" stroke="#1B42D8" stroke-width="0.5" mask="url(#mask-36)"></line>
                    </g>
                    <g id="Group-78">
                        <mask id="mask-38" fill="white">
                            <use xlink:href="#path-37"></use>
                        </mask>
                        <g id="Clip-77"></g>
                        <line x1="-15.593503" y1="16.2586424" x2="0.945890909" y2="-0.280751515" id="Stroke-76" stroke="#1B42D8" stroke-width="0.5" mask="url(#mask-38)"></line>
                    </g>
                    <g id="Group-81">
                        <mask id="mask-40" fill="white">
                            <use xlink:href="#path-39"></use>
                        </mask>
                        <g id="Clip-80"></g>
                        <line x1="-17.1938909" y1="16.2586424" x2="-0.65449697" y2="-0.280751515" id="Stroke-79" stroke="#1B42D8" stroke-width="0.5" mask="url(#mask-40)"></line>
                    </g>
                </g>
                <g id="Group-140" transform="translate(79.757576, 0.163103)">
                    <g id="Group-85">
                        <mask id="mask-42" fill="white">
                            <use xlink:href="#path-41"></use>
                        </mask>
                        <g id="Clip-84"></g>
                        <line x1="11.5270061" y1="16.2586424" x2="28.0664" y2="-0.280751515" id="Stroke-83" stroke="#FFA015" stroke-width="0.5" mask="url(#mask-42)"></line>
                    </g>
                    <g id="Group-88">
                        <mask id="mask-44" fill="white">
                            <use xlink:href="#path-43"></use>
                        </mask>
                        <g id="Clip-87"></g>
                        <line x1="9.92661818" y1="16.2586424" x2="26.4660121" y2="-0.280751515" id="Stroke-86" stroke="#FFA015" stroke-width="0.5" mask="url(#mask-44)"></line>
                    </g>
                    <g id="Group-91">
                        <mask id="mask-46" fill="white">
                            <use xlink:href="#path-45"></use>
                        </mask>
                        <g id="Clip-90"></g>
                        <line x1="8.3262303" y1="16.2586424" x2="24.8656242" y2="-0.280751515" id="Stroke-89" stroke="#FFA015" stroke-width="0.5" mask="url(#mask-46)"></line>
                    </g>
                    <g id="Group-94">
                        <mask id="mask-48" fill="white">
                            <use xlink:href="#path-47"></use>
                        </mask>
                        <g id="Clip-93"></g>
                        <line x1="6.72586667" y1="16.2586424" x2="23.2652606" y2="-0.280751515" id="Stroke-92" stroke="#FFA015" stroke-width="0.5" mask="url(#mask-48)"></line>
                    </g>
                    <g id="Group-97">
                        <mask id="mask-50" fill="white">
                            <use xlink:href="#path-49"></use>
                        </mask>
                        <g id="Clip-96"></g>
                        <line x1="5.12547879" y1="16.2586424" x2="21.6648727" y2="-0.280751515" id="Stroke-95" stroke="#FFA015" stroke-width="0.5" mask="url(#mask-50)"></line>
                    </g>
                    <g id="Group-100">
                        <mask id="mask-52" fill="white">
                            <use xlink:href="#path-51"></use>
                        </mask>
                        <g id="Clip-99"></g>
                        <line x1="3.52509091" y1="16.2586424" x2="20.0642424" y2="-0.280751515" id="Stroke-98" stroke="#FFA015" stroke-width="0.5" mask="url(#mask-52)"></line>
                    </g>
                    <g id="Group-103">
                        <mask id="mask-54" fill="white">
                            <use xlink:href="#path-53"></use>
                        </mask>
                        <g id="Clip-102"></g>
                        <line x1="1.92448485" y1="16.2586424" x2="18.4638788" y2="-0.280751515" id="Stroke-101" stroke="#FFA015" stroke-width="0.5" mask="url(#mask-54)"></line>
                    </g>
                    <g id="Group-106">
                        <mask id="mask-56" fill="white">
                            <use xlink:href="#path-55"></use>
                        </mask>
                        <g id="Clip-105"></g>
                        <line x1="0.32409697" y1="16.2586424" x2="16.8634909" y2="-0.280751515" id="Stroke-104" stroke="#FFA015" stroke-width="0.5" mask="url(#mask-56)"></line>
                    </g>
                    <g id="Group-109">
                        <mask id="mask-58" fill="white">
                            <use xlink:href="#path-57"></use>
                        </mask>
                        <g id="Clip-108"></g>
                        <line x1="-1.27626667" y1="16.2586424" x2="15.2631273" y2="-0.280751515" id="Stroke-107" stroke="#FFA015" stroke-width="0.5" mask="url(#mask-58)"></line>
                    </g>
                    <g id="Group-112">
                        <mask id="mask-60" fill="white">
                            <use xlink:href="#path-59"></use>
                        </mask>
                        <g id="Clip-111"></g>
                        <line x1="-2.87665455" y1="16.2586424" x2="13.6627394" y2="-0.280751515" id="Stroke-110" stroke="#FFA015" stroke-width="0.5" mask="url(#mask-60)"></line>
                    </g>
                    <g id="Group-115">
                        <mask id="mask-62" fill="white">
                            <use xlink:href="#path-61"></use>
                        </mask>
                        <g id="Clip-114"></g>
                        <line x1="-4.47701818" y1="16.2586424" x2="12.0623758" y2="-0.280751515" id="Stroke-113" stroke="#FFA015" stroke-width="0.5" mask="url(#mask-62)"></line>
                    </g>
                    <g id="Group-118">
                        <mask id="mask-64" fill="white">
                            <use xlink:href="#path-63"></use>
                        </mask>
                        <g id="Clip-117"></g>
                        <line x1="-6.07740606" y1="16.2586424" x2="10.4619879" y2="-0.280751515" id="Stroke-116" stroke="#FFA015" stroke-width="0.5" mask="url(#mask-64)"></line>
                    </g>
                    <g id="Group-121">
                        <mask id="mask-66" fill="white">
                            <use xlink:href="#path-65"></use>
                        </mask>
                        <g id="Clip-120"></g>
                        <line x1="-7.67779394" y1="16.2586424" x2="8.8616" y2="-0.280751515" id="Stroke-119" stroke="#FFA015" stroke-width="0.5" mask="url(#mask-66)"></line>
                    </g>
                    <g id="Group-124">
                        <mask id="mask-68" fill="white">
                            <use xlink:href="#path-67"></use>
                        </mask>
                        <g id="Clip-123"></g>
                        <line x1="-9.27815758" y1="16.2586424" x2="7.26123636" y2="-0.280751515" id="Stroke-122" stroke="#FFA015" stroke-width="0.5" mask="url(#mask-68)"></line>
                    </g>
                    <g id="Group-127">
                        <mask id="mask-70" fill="white">
                            <use xlink:href="#path-69"></use>
                        </mask>
                        <g id="Clip-126"></g>
                        <line x1="-10.8785455" y1="16.2586424" x2="5.66060606" y2="-0.280751515" id="Stroke-125" stroke="#FFA015" stroke-width="0.5" mask="url(#mask-70)"></line>
                    </g>
                    <g id="Group-130">
                        <mask id="mask-72" fill="white">
                            <use xlink:href="#path-71"></use>
                        </mask>
                        <g id="Clip-129"></g>
                        <line x1="-12.4791515" y1="16.2586424" x2="4.06024242" y2="-0.280751515" id="Stroke-128" stroke="#FFA015" stroke-width="0.5" mask="url(#mask-72)"></line>
                    </g>
                    <g id="Group-133">
                        <mask id="mask-74" fill="white">
                            <use xlink:href="#path-73"></use>
                        </mask>
                        <g id="Clip-132"></g>
                        <line x1="-14.0795394" y1="16.2586424" x2="2.45985455" y2="-0.280751515" id="Stroke-131" stroke="#FFA015" stroke-width="0.5" mask="url(#mask-74)"></line>
                    </g>
                    <g id="Group-136">
                        <mask id="mask-76" fill="white">
                            <use xlink:href="#path-75"></use>
                        </mask>
                        <g id="Clip-135"></g>
                        <line x1="-15.6799273" y1="16.2586424" x2="0.859466667" y2="-0.280751515" id="Stroke-134" stroke="#FFA015" stroke-width="0.5" mask="url(#mask-76)"></line>
                    </g>
                    <g id="Group-139">
                        <mask id="mask-78" fill="white">
                            <use xlink:href="#path-77"></use>
                        </mask>
                        <g id="Clip-138"></g>
                        <line x1="-17.2802909" y1="16.2586424" x2="-0.74089697" y2="-0.280751515" id="Stroke-137" stroke="#FFA015" stroke-width="0.5" mask="url(#mask-78)"></line>
                    </g>
                </g>
            </g>
        </g>
    </g>
</svg>