<?xml version="1.0" encoding="UTF-8"?>
<svg width="127px" height="51px" viewBox="0 0 127 51" version="1.1" xmlns="http://www.w3.org/2000/svg" xmlns:xlink="http://www.w3.org/1999/xlink">
    <!-- Generator: Sketch 63.1 (92452) - https://sketch.com -->
    <title>logo</title>
    <desc>Created with Sketch.</desc>
    <defs>
        <polygon id="path-1" points="0 0.0399839584 17.3478771 0.0399839584 17.3478771 17.8059983 0 17.8059983"></polygon>
        <path d="M-0.0026065162,11.9826763 C-0.0026065162,18.4932324 5.27558878,23.7709064 11.7861449,23.7709064 L11.7861449,23.7709064 C18.2967011,23.7709064 23.5748964,18.4932324 23.5748964,11.9826763 L23.5748964,11.9826763 C23.5748964,5.4715988 18.2967011,0.193924805 11.7861449,0.193924805 L11.7861449,0.193924805 C5.27558878,0.193924805 -0.0026065162,5.4715988 -0.0026065162,11.9826763" id="path-3"></path>
        <path d="M-0.0026065162,11.9826763 C-0.0026065162,18.4932324 5.27558878,23.7709064 11.7861449,23.7709064 L11.7861449,23.7709064 C18.2967011,23.7709064 23.5748964,18.4932324 23.5748964,11.9826763 L23.5748964,11.9826763 C23.5748964,5.4715988 18.2967011,0.193924805 11.7861449,0.193924805 L11.7861449,0.193924805 C5.27558878,0.193924805 -0.0026065162,5.4715988 -0.0026065162,11.9826763" id="path-5"></path>
        <path d="M-0.0026065162,11.9826763 C-0.0026065162,18.4932324 5.27558878,23.7709064 11.7861449,23.7709064 L11.7861449,23.7709064 C18.2967011,23.7709064 23.5748964,18.4932324 23.5748964,11.9826763 L23.5748964,11.9826763 C23.5748964,5.4715988 18.2967011,0.193924805 11.7861449,0.193924805 L11.7861449,0.193924805 C5.27558878,0.193924805 -0.0026065162,5.4715988 -0.0026065162,11.9826763" id="path-7"></path>
        <path d="M-0.0026065162,11.9826763 C-0.0026065162,18.4932324 5.27558878,23.7709064 11.7861449,23.7709064 L11.7861449,23.7709064 C18.2967011,23.7709064 23.5748964,18.4932324 23.5748964,11.9826763 L23.5748964,11.9826763 C23.5748964,5.4715988 18.2967011,0.193924805 11.7861449,0.193924805 L11.7861449,0.193924805 C5.27558878,0.193924805 -0.0026065162,5.4715988 -0.0026065162,11.9826763" id="path-9"></path>
        <path d="M-0.0026065162,11.9826763 C-0.0026065162,18.4932324 5.27558878,23.7709064 11.7861449,23.7709064 L11.7861449,23.7709064 C18.2967011,23.7709064 23.5748964,18.4932324 23.5748964,11.9826763 L23.5748964,11.9826763 C23.5748964,5.4715988 18.2967011,0.193924805 11.7861449,0.193924805 L11.7861449,0.193924805 C5.27558878,0.193924805 -0.0026065162,5.4715988 -0.0026065162,11.9826763" id="path-11"></path>
        <path d="M-0.0026065162,11.9826763 C-0.0026065162,18.4932324 5.27558878,23.7709064 11.7861449,23.7709064 L11.7861449,23.7709064 C18.2967011,23.7709064 23.5748964,18.4932324 23.5748964,11.9826763 L23.5748964,11.9826763 C23.5748964,5.4715988 18.2967011,0.193924805 11.7861449,0.193924805 L11.7861449,0.193924805 C5.27558878,0.193924805 -0.0026065162,5.4715988 -0.0026065162,11.9826763" id="path-13"></path>
        <path d="M-0.0026065162,11.9826763 C-0.0026065162,18.4932324 5.27558878,23.7709064 11.7861449,23.7709064 L11.7861449,23.7709064 C18.2967011,23.7709064 23.5748964,18.4932324 23.5748964,11.9826763 L23.5748964,11.9826763 C23.5748964,5.4715988 18.2967011,0.193924805 11.7861449,0.193924805 L11.7861449,0.193924805 C5.27558878,0.193924805 -0.0026065162,5.4715988 -0.0026065162,11.9826763" id="path-15"></path>
        <path d="M-0.0026065162,11.9826763 C-0.0026065162,18.4932324 5.27558878,23.7709064 11.7861449,23.7709064 L11.7861449,23.7709064 C18.2967011,23.7709064 23.5748964,18.4932324 23.5748964,11.9826763 L23.5748964,11.9826763 C23.5748964,5.4715988 18.2967011,0.193924805 11.7861449,0.193924805 L11.7861449,0.193924805 C5.27558878,0.193924805 -0.0026065162,5.4715988 -0.0026065162,11.9826763" id="path-17"></path>
        <path d="M-0.0026065162,11.9826763 C-0.0026065162,18.4932324 5.27558878,23.7709064 11.7861449,23.7709064 L11.7861449,23.7709064 C18.2967011,23.7709064 23.5748964,18.4932324 23.5748964,11.9826763 L23.5748964,11.9826763 C23.5748964,5.4715988 18.2967011,0.193924805 11.7861449,0.193924805 L11.7861449,0.193924805 C5.27558878,0.193924805 -0.0026065162,5.4715988 -0.0026065162,11.9826763" id="path-19"></path>
        <path d="M-0.0026065162,11.9826763 C-0.0026065162,18.4932324 5.27558878,23.7709064 11.7861449,23.7709064 L11.7861449,23.7709064 C18.2967011,23.7709064 23.5748964,18.4932324 23.5748964,11.9826763 L23.5748964,11.9826763 C23.5748964,5.4715988 18.2967011,0.193924805 11.7861449,0.193924805 L11.7861449,0.193924805 C5.27558878,0.193924805 -0.0026065162,5.4715988 -0.0026065162,11.9826763" id="path-21"></path>
        <path d="M-0.0026065162,11.9826763 C-0.0026065162,18.4932324 5.27558878,23.7709064 11.7861449,23.7709064 L11.7861449,23.7709064 C18.2967011,23.7709064 23.5748964,18.4932324 23.5748964,11.9826763 L23.5748964,11.9826763 C23.5748964,5.4715988 18.2967011,0.193924805 11.7861449,0.193924805 L11.7861449,0.193924805 C5.27558878,0.193924805 -0.0026065162,5.4715988 -0.0026065162,11.9826763" id="path-23"></path>
        <path d="M-0.0026065162,11.9826763 C-0.0026065162,18.4932324 5.27558878,23.7709064 11.7861449,23.7709064 L11.7861449,23.7709064 C18.2967011,23.7709064 23.5748964,18.4932324 23.5748964,11.9826763 L23.5748964,11.9826763 C23.5748964,5.4715988 18.2967011,0.193924805 11.7861449,0.193924805 L11.7861449,0.193924805 C5.27558878,0.193924805 -0.0026065162,5.4715988 -0.0026065162,11.9826763" id="path-25"></path>
        <path d="M-0.0026065162,11.9826763 C-0.0026065162,18.4932324 5.27558878,23.7709064 11.7861449,23.7709064 L11.7861449,23.7709064 C18.2967011,23.7709064 23.5748964,18.4932324 23.5748964,11.9826763 L23.5748964,11.9826763 C23.5748964,5.4715988 18.2967011,0.193924805 11.7861449,0.193924805 L11.7861449,0.193924805 C5.27558878,0.193924805 -0.0026065162,5.4715988 -0.0026065162,11.9826763" id="path-27"></path>
        <path d="M-0.0026065162,11.9826763 C-0.0026065162,18.4932324 5.27558878,23.7709064 11.7861449,23.7709064 L11.7861449,23.7709064 C18.2967011,23.7709064 23.5748964,18.4932324 23.5748964,11.9826763 L23.5748964,11.9826763 C23.5748964,5.4715988 18.2967011,0.193924805 11.7861449,0.193924805 L11.7861449,0.193924805 C5.27558878,0.193924805 -0.0026065162,5.4715988 -0.0026065162,11.9826763" id="path-29"></path>
        <path d="M-0.0026065162,11.9826763 C-0.0026065162,18.4932324 5.27558878,23.7709064 11.7861449,23.7709064 L11.7861449,23.7709064 C18.2967011,23.7709064 23.5748964,18.4932324 23.5748964,11.9826763 L23.5748964,11.9826763 C23.5748964,5.4715988 18.2967011,0.193924805 11.7861449,0.193924805 L11.7861449,0.193924805 C5.27558878,0.193924805 -0.0026065162,5.4715988 -0.0026065162,11.9826763" id="path-31"></path>
        <path d="M-0.0026065162,11.9826763 C-0.0026065162,18.4932324 5.27558878,23.7709064 11.7861449,23.7709064 L11.7861449,23.7709064 C18.2967011,23.7709064 23.5748964,18.4932324 23.5748964,11.9826763 L23.5748964,11.9826763 C23.5748964,5.4715988 18.2967011,0.193924805 11.7861449,0.193924805 L11.7861449,0.193924805 C5.27558878,0.193924805 -0.0026065162,5.4715988 -0.0026065162,11.9826763" id="path-33"></path>
        <path d="M-0.0026065162,11.9826763 C-0.0026065162,18.4932324 5.27558878,23.7709064 11.7861449,23.7709064 L11.7861449,23.7709064 C18.2967011,23.7709064 23.5748964,18.4932324 23.5748964,11.9826763 L23.5748964,11.9826763 C23.5748964,5.4715988 18.2967011,0.193924805 11.7861449,0.193924805 L11.7861449,0.193924805 C5.27558878,0.193924805 -0.0026065162,5.4715988 -0.0026065162,11.9826763" id="path-35"></path>
        <path d="M-0.0026065162,11.9826763 C-0.0026065162,18.4932324 5.27558878,23.7709064 11.7861449,23.7709064 L11.7861449,23.7709064 C18.2967011,23.7709064 23.5748964,18.4932324 23.5748964,11.9826763 L23.5748964,11.9826763 C23.5748964,5.4715988 18.2967011,0.193924805 11.7861449,0.193924805 L11.7861449,0.193924805 C5.27558878,0.193924805 -0.0026065162,5.4715988 -0.0026065162,11.9826763" id="path-37"></path>
        <path d="M-0.0026065162,11.9826763 C-0.0026065162,18.4932324 5.27558878,23.7709064 11.7861449,23.7709064 L11.7861449,23.7709064 C18.2967011,23.7709064 23.5748964,18.4932324 23.5748964,11.9826763 L23.5748964,11.9826763 C23.5748964,5.4715988 18.2967011,0.193924805 11.7861449,0.193924805 L11.7861449,0.193924805 C5.27558878,0.193924805 -0.0026065162,5.4715988 -0.0026065162,11.9826763" id="path-39"></path>
        <path d="M0.42173432,11.9826763 C0.42173432,18.4932324 5.69992962,23.7709064 12.2104858,23.7709064 L12.2104858,23.7709064 C18.7210419,23.7709064 23.9987159,18.4932324 23.9987159,11.9826763 L23.9987159,11.9826763 C23.9987159,5.4715988 18.7210419,0.193924805 12.2104858,0.193924805 L12.2104858,0.193924805 C5.69992962,0.193924805 0.42173432,5.4715988 0.42173432,11.9826763" id="path-41"></path>
        <path d="M0.42173432,11.9826763 C0.42173432,18.4932324 5.69992962,23.7709064 12.2104858,23.7709064 L12.2104858,23.7709064 C18.7210419,23.7709064 23.9987159,18.4932324 23.9987159,11.9826763 L23.9987159,11.9826763 C23.9987159,5.4715988 18.7210419,0.193924805 12.2104858,0.193924805 L12.2104858,0.193924805 C5.69992962,0.193924805 0.42173432,5.4715988 0.42173432,11.9826763" id="path-43"></path>
        <path d="M0.42173432,11.9826763 C0.42173432,18.4932324 5.69992962,23.7709064 12.2104858,23.7709064 L12.2104858,23.7709064 C18.7210419,23.7709064 23.9987159,18.4932324 23.9987159,11.9826763 L23.9987159,11.9826763 C23.9987159,5.4715988 18.7210419,0.193924805 12.2104858,0.193924805 L12.2104858,0.193924805 C5.69992962,0.193924805 0.42173432,5.4715988 0.42173432,11.9826763" id="path-45"></path>
        <path d="M0.42173432,11.9826763 C0.42173432,18.4932324 5.69992962,23.7709064 12.2104858,23.7709064 L12.2104858,23.7709064 C18.7210419,23.7709064 23.9987159,18.4932324 23.9987159,11.9826763 L23.9987159,11.9826763 C23.9987159,5.4715988 18.7210419,0.193924805 12.2104858,0.193924805 L12.2104858,0.193924805 C5.69992962,0.193924805 0.42173432,5.4715988 0.42173432,11.9826763" id="path-47"></path>
        <path d="M0.42173432,11.9826763 C0.42173432,18.4932324 5.69992962,23.7709064 12.2104858,23.7709064 L12.2104858,23.7709064 C18.7210419,23.7709064 23.9987159,18.4932324 23.9987159,11.9826763 L23.9987159,11.9826763 C23.9987159,5.4715988 18.7210419,0.193924805 12.2104858,0.193924805 L12.2104858,0.193924805 C5.69992962,0.193924805 0.42173432,5.4715988 0.42173432,11.9826763" id="path-49"></path>
        <path d="M0.42173432,11.9826763 C0.42173432,18.4932324 5.69992962,23.7709064 12.2104858,23.7709064 L12.2104858,23.7709064 C18.7210419,23.7709064 23.9987159,18.4932324 23.9987159,11.9826763 L23.9987159,11.9826763 C23.9987159,5.4715988 18.7210419,0.193924805 12.2104858,0.193924805 L12.2104858,0.193924805 C5.69992962,0.193924805 0.42173432,5.4715988 0.42173432,11.9826763" id="path-51"></path>
        <path d="M0.42173432,11.9826763 C0.42173432,18.4932324 5.69992962,23.7709064 12.2104858,23.7709064 L12.2104858,23.7709064 C18.7210419,23.7709064 23.9987159,18.4932324 23.9987159,11.9826763 L23.9987159,11.9826763 C23.9987159,5.4715988 18.7210419,0.193924805 12.2104858,0.193924805 L12.2104858,0.193924805 C5.69992962,0.193924805 0.42173432,5.4715988 0.42173432,11.9826763" id="path-53"></path>
        <path d="M0.42173432,11.9826763 C0.42173432,18.4932324 5.69992962,23.7709064 12.2104858,23.7709064 L12.2104858,23.7709064 C18.7210419,23.7709064 23.9987159,18.4932324 23.9987159,11.9826763 L23.9987159,11.9826763 C23.9987159,5.4715988 18.7210419,0.193924805 12.2104858,0.193924805 L12.2104858,0.193924805 C5.69992962,0.193924805 0.42173432,5.4715988 0.42173432,11.9826763" id="path-55"></path>
        <path d="M0.42173432,11.9826763 C0.42173432,18.4932324 5.69992962,23.7709064 12.2104858,23.7709064 L12.2104858,23.7709064 C18.7210419,23.7709064 23.9987159,18.4932324 23.9987159,11.9826763 L23.9987159,11.9826763 C23.9987159,5.4715988 18.7210419,0.193924805 12.2104858,0.193924805 L12.2104858,0.193924805 C5.69992962,0.193924805 0.42173432,5.4715988 0.42173432,11.9826763" id="path-57"></path>
        <path d="M0.42173432,11.9826763 C0.42173432,18.4932324 5.69992962,23.7709064 12.2104858,23.7709064 L12.2104858,23.7709064 C18.7210419,23.7709064 23.9987159,18.4932324 23.9987159,11.9826763 L23.9987159,11.9826763 C23.9987159,5.4715988 18.7210419,0.193924805 12.2104858,0.193924805 L12.2104858,0.193924805 C5.69992962,0.193924805 0.42173432,5.4715988 0.42173432,11.9826763" id="path-59"></path>
        <path d="M0.42173432,11.9826763 C0.42173432,18.4932324 5.69992962,23.7709064 12.2104858,23.7709064 L12.2104858,23.7709064 C18.7210419,23.7709064 23.9987159,18.4932324 23.9987159,11.9826763 L23.9987159,11.9826763 C23.9987159,5.4715988 18.7210419,0.193924805 12.2104858,0.193924805 L12.2104858,0.193924805 C5.69992962,0.193924805 0.42173432,5.4715988 0.42173432,11.9826763" id="path-61"></path>
        <path d="M0.42173432,11.9826763 C0.42173432,18.4932324 5.69992962,23.7709064 12.2104858,23.7709064 L12.2104858,23.7709064 C18.7210419,23.7709064 23.9987159,18.4932324 23.9987159,11.9826763 L23.9987159,11.9826763 C23.9987159,5.4715988 18.7210419,0.193924805 12.2104858,0.193924805 L12.2104858,0.193924805 C5.69992962,0.193924805 0.42173432,5.4715988 0.42173432,11.9826763" id="path-63"></path>
        <path d="M0.42173432,11.9826763 C0.42173432,18.4932324 5.69992962,23.7709064 12.2104858,23.7709064 L12.2104858,23.7709064 C18.7210419,23.7709064 23.9987159,18.4932324 23.9987159,11.9826763 L23.9987159,11.9826763 C23.9987159,5.4715988 18.7210419,0.193924805 12.2104858,0.193924805 L12.2104858,0.193924805 C5.69992962,0.193924805 0.42173432,5.4715988 0.42173432,11.9826763" id="path-65"></path>
        <path d="M0.42173432,11.9826763 C0.42173432,18.4932324 5.69992962,23.7709064 12.2104858,23.7709064 L12.2104858,23.7709064 C18.7210419,23.7709064 23.9987159,18.4932324 23.9987159,11.9826763 L23.9987159,11.9826763 C23.9987159,5.4715988 18.7210419,0.193924805 12.2104858,0.193924805 L12.2104858,0.193924805 C5.69992962,0.193924805 0.42173432,5.4715988 0.42173432,11.9826763" id="path-67"></path>
        <path d="M0.42173432,11.9826763 C0.42173432,18.4932324 5.69992962,23.7709064 12.2104858,23.7709064 L12.2104858,23.7709064 C18.7210419,23.7709064 23.9987159,18.4932324 23.9987159,11.9826763 L23.9987159,11.9826763 C23.9987159,5.4715988 18.7210419,0.193924805 12.2104858,0.193924805 L12.2104858,0.193924805 C5.69992962,0.193924805 0.42173432,5.4715988 0.42173432,11.9826763" id="path-69"></path>
        <path d="M0.42173432,11.9826763 C0.42173432,18.4932324 5.69992962,23.7709064 12.2104858,23.7709064 L12.2104858,23.7709064 C18.7210419,23.7709064 23.9987159,18.4932324 23.9987159,11.9826763 L23.9987159,11.9826763 C23.9987159,5.4715988 18.7210419,0.193924805 12.2104858,0.193924805 L12.2104858,0.193924805 C5.69992962,0.193924805 0.42173432,5.4715988 0.42173432,11.9826763" id="path-71"></path>
        <path d="M0.42173432,11.9826763 C0.42173432,18.4932324 5.69992962,23.7709064 12.2104858,23.7709064 L12.2104858,23.7709064 C18.7210419,23.7709064 23.9987159,18.4932324 23.9987159,11.9826763 L23.9987159,11.9826763 C23.9987159,5.4715988 18.7210419,0.193924805 12.2104858,0.193924805 L12.2104858,0.193924805 C5.69992962,0.193924805 0.42173432,5.4715988 0.42173432,11.9826763" id="path-73"></path>
        <path d="M0.42173432,11.9826763 C0.42173432,18.4932324 5.69992962,23.7709064 12.2104858,23.7709064 L12.2104858,23.7709064 C18.7210419,23.7709064 23.9987159,18.4932324 23.9987159,11.9826763 L23.9987159,11.9826763 C23.9987159,5.4715988 18.7210419,0.193924805 12.2104858,0.193924805 L12.2104858,0.193924805 C5.69992962,0.193924805 0.42173432,5.4715988 0.42173432,11.9826763" id="path-75"></path>
        <path d="M0.42173432,11.9826763 C0.42173432,18.4932324 5.69992962,23.7709064 12.2104858,23.7709064 L12.2104858,23.7709064 C18.7210419,23.7709064 23.9987159,18.4932324 23.9987159,11.9826763 L23.9987159,11.9826763 C23.9987159,5.4715988 18.7210419,0.193924805 12.2104858,0.193924805 L12.2104858,0.193924805 C5.69992962,0.193924805 0.42173432,5.4715988 0.42173432,11.9826763" id="path-77"></path>
    </defs>
    <g id="Desktop" stroke="none" stroke-width="1" fill="none" fill-rule="evenodd">
        <g id="home" transform="translate(-104.000000, -16.000000)">
            <g id="Group-2">
                <g id="Group">
                    <g id="logo" transform="translate(104.000000, 16.000000)">
                        <g id="Group-24" transform="translate(0.000000, 0.283068)">
                            <path d="M119.887077,15.6708445 C119.3762,16.1817217 118.689122,16.4361177 117.8321,16.4361177 C116.971428,16.4361177 116.287478,16.1817217 115.776601,15.6708445 C115.265724,15.1599674 115.009243,14.4728897 115.009243,13.6158672 C115.009243,12.7557168 115.265724,12.071767 115.776601,11.5603685 C116.287478,11.0494913 116.971428,10.7930101 117.8321,10.7930101 C118.689122,10.7930101 119.3762,11.0494913 119.887077,11.5603685 C120.397433,12.071767 120.65235,12.7557168 120.65235,13.6158672 C120.65235,14.4728897 120.397433,15.1599674 119.887077,15.6708445 M117.8321,4.73129607 C112.925073,4.73129607 108.950135,8.70883978 108.950135,13.6158672 C108.950135,18.5197667 112.925073,22.4973105 117.8321,22.4973105 C122.736,22.4973105 126.713543,18.5197667 126.713543,13.6158672 C126.713543,8.70883978 122.736,4.73129607 117.8321,4.73129607" id="Fill-1" fill="#1B42D8"></path>
                            <g id="Group-5" transform="translate(0.000000, 4.691729)">
                                <mask id="mask-2" fill="white">
                                    <use xlink:href="#path-1"></use>
                                </mask>
                                <g id="Clip-4"></g>
                                <path d="M4.02336627,17.4228405 C2.45580743,17.1674019 1.20728617,16.7957127 0.278323799,16.3077728 L0.278323799,11.0134171 C1.25420346,11.570169 2.44955179,12.0466402 3.86645399,12.4412667 C5.28283489,12.8364146 6.54908046,13.0334672 7.66362679,13.0334672 C8.19796261,13.0334672 8.58059918,13.0105298 8.81310043,12.9636126 C9.04508037,12.9177379 9.16133099,12.8129559 9.16133099,12.6503093 C9.16133099,12.53458 9.05707034,12.4412667 8.84802775,12.3719334 C8.63898515,12.3020787 8.36008791,12.2322241 8.01185735,12.1628908 C7.17568695,12.0007655 6.43230854,11.8261289 5.7827647,11.6400236 C3.66888007,10.9904798 2.1774315,10.241367 1.30633379,9.39320667 C0.435236074,8.54608891 -5.21303239e-05,7.34396364 -5.21303239e-05,5.78787347 C-5.21303239e-05,3.83715675 0.766263631,2.39158287 2.29889515,1.45115183 C3.83204798,0.510720783 5.94489001,0.0399839584 8.63898515,0.0399839584 C9.89324074,0.0399839584 11.2804287,0.179693226 12.8015915,0.458590459 C14.3227544,0.736966389 15.443035,1.09718693 16.1629548,1.53820947 L16.1629548,6.83308647 C15.4664937,6.34514663 14.4796666,5.9218484 13.2019524,5.56162787 C11.9247595,5.20192863 10.7867545,5.02155771 9.78845879,5.02155771 C9.3234563,5.02155771 8.94081972,5.05648503 8.63898515,5.12633966 C8.33662927,5.19567299 8.18597263,5.28898627 8.18597263,5.40471559 C8.18597263,5.52096621 8.31317062,5.62574816 8.56965182,5.71801884 C8.8245691,5.81133212 9.23118563,5.90412409 9.78845879,5.99691607 C10.8795465,6.20595867 11.4952056,6.33419927 11.6349149,6.38007395 C13.1675464,6.77522181 14.346213,7.23344735 15.1703934,7.7563145 C15.9945738,8.27866035 16.563837,8.88806383 16.8771402,9.58504626 C17.1909648,10.2815074 17.3478771,11.1645951 17.3478771,12.2322241 C17.3478771,13.9280235 16.5925087,15.2802842 15.0833358,16.2905698 C13.5731203,17.3008555 11.4018923,17.8059983 8.56965182,17.8059983 C7.10635362,17.8059983 5.59092511,17.6777577 4.02336627,17.4228405" id="Fill-3" fill="#1B42D8" mask="url(#mask-2)"></path>
                            </g>
                            <path d="M20.3609055,28.6634416 C19.3970158,28.5237323 18.6942991,28.349617 18.2537978,28.1410957 L18.2537978,22.3582789 C18.9731963,22.6595922 19.797898,22.8112914 20.7268604,22.8112914 C21.4003842,22.8112914 21.9289857,22.6715821 22.3121435,22.3932062 C22.6953014,22.114309 22.9914017,21.6962238 23.199923,21.1389506 L23.3740382,20.6515321 L16.1289658,5.25431961 L23.96676,5.25431961 L27.5194416,14.7993819 L30.8985292,5.25431961 L38.7363234,5.25431961 L32.2570454,21.975121 C31.3515417,24.3204643 30.1723538,26.0564041 28.7215669,27.1829404 C27.2697373,28.3089554 25.3946096,28.8724842 23.0956623,28.8724842 C22.2365546,28.8724842 21.3247952,28.8026295 20.3609055,28.6634416" id="Fill-6" fill="#1B42D8"></path>
                            <path d="M40.1297148,5.25442387 L47.3403812,5.25442387 L47.3403812,6.64786743 C48.6639701,5.37067449 50.324321,4.73207802 52.321955,4.73207802 C53.5063559,4.73207802 54.46399,4.88846899 55.1958997,5.20229354 C55.9272882,5.51559679 56.5481603,5.98581231 57.0595588,6.61294011 C57.7560199,6.0327296 58.5687317,5.57398275 59.4976941,5.23722086 C60.4266564,4.90045897 61.3900248,4.73207802 62.3888418,4.73207802 C64.6883104,4.73207802 66.3137339,5.3242785 67.2661549,6.50867946 C68.2180546,7.69308042 68.6940045,9.39982722 68.6940045,11.6294412 L68.6940045,21.9752253 L61.2049622,21.9752253 L61.2049622,12.7789148 C61.2049622,12.105391 61.0944459,11.6065038 60.8739346,11.2812106 C60.652902,10.9559174 60.2525411,10.7932708 59.6718093,10.7932708 C59.1843908,10.7932708 58.742847,10.9095214 58.3482204,11.1415013 L58.3482204,21.9752253 L50.8586568,21.9752253 L50.8586568,12.3957569 C50.8586568,11.8614211 50.7543961,11.4610602 50.5448322,11.1936317 C50.3363109,10.9272457 49.9880804,10.7932708 49.5006618,10.7932708 C48.7103661,10.7932708 48.0837596,11.2348146 47.6192785,12.1168597 L47.6192785,21.9752253 L40.1297148,21.9752253 L40.1297148,5.25442387 Z" id="Fill-8" fill="#1B42D8"></path>
                            <path d="M83.7939699,15.7054591 C83.2711027,16.1928776 82.5470125,16.4373688 81.6175288,16.4373688 C81.0128171,16.4373688 80.4571078,16.2971382 79.945188,16.0192836 C79.4343109,15.7388225 79.051153,15.3567072 78.7957144,14.8692887 L78.7957144,12.3607775 C79.051153,11.8738803 79.4343109,11.4891585 79.945188,11.2113038 C80.4571078,10.9329279 81.0128171,10.7932187 81.6175288,10.7932187 C82.5470125,10.7932187 83.2711027,11.0262412 83.7939699,11.4891585 C84.3163157,11.954161 84.5780099,12.652186 84.5780099,13.5795845 C84.5780099,14.5090681 84.3163157,15.2164766 83.7939699,15.7054591 M91.597358,8.94728388 C90.8654483,7.59971501 89.8337892,6.56023635 88.4971677,5.8283266 C87.1610675,5.09693816 85.5893382,4.7330685 83.7772882,4.7330685 C82.7784711,4.7330685 81.8098897,4.90666248 80.8694587,5.25385043 C79.9285063,5.6026023 79.1444663,6.06760479 78.5178598,6.6478153 L78.5178598,5.25385043 L70.9584415,5.25385043 L70.9584415,28.4669624 L78.7957144,28.4669624 L78.7957144,20.9294388 C79.3535089,21.3944413 80.0796843,21.7713436 80.9737193,22.0622308 C81.8677544,22.3520754 82.8029724,22.497519 83.7772882,22.497519 C85.564837,22.497519 87.1329171,22.1258298 88.480486,21.3829726 C89.8259696,20.6401155 90.8654483,19.5949025 91.597358,18.2473337 C92.3287465,16.90185 92.6947014,15.3567072 92.6947014,13.6150331 C92.6947014,11.849379 92.3287465,10.2948528 91.597358,8.94728388" id="Fill-10" fill="#1B42D8"></path>
                            <path d="M96.9848706,20.5817296 C95.823407,19.3050579 95.2431965,17.5977898 95.2431965,15.4609679 L95.2431965,10.4100608 L92.9791765,10.4100608 L92.9791765,5.25437174 L95.2431965,5.25437174 L95.2431965,0.238391971 L103.080991,0.238391971 L103.080991,5.25437174 L106.704048,5.25437174 L106.704048,10.4100608 L103.080991,10.4100608 L103.080991,14.3114942 C103.080991,15.07781 103.2207,15.6236145 103.499076,15.9489077 C103.777973,16.2742009 104.253402,16.4363262 104.927447,16.4363262 C105.786555,16.4363262 106.610735,16.1928776 107.400509,15.7049378 L107.400509,21.4872333 C106.68059,21.8359852 105.925221,22.0914238 105.136489,22.2540704 C104.346715,22.4161957 103.347898,22.497519 102.14056,22.497519 C99.8640284,22.497519 98.1463342,21.8594438 96.9848706,20.5817296" id="Fill-12" fill="#1B42D8"></path>
                            <path d="M4.29929207,48.1986027 C3.13730715,46.9219311 2.55709665,45.214663 2.55709665,43.077841 L2.55709665,38.0269339 L0.293076681,38.0269339 L0.293076681,32.8712449 L2.55709665,32.8712449 L2.55709665,27.8552651 L10.3948908,27.8552651 L10.3948908,32.8712449 L14.0179484,32.8712449 L14.0179484,38.0269339 L10.3948908,38.0269339 L10.3948908,41.9283674 C10.3948908,42.6946831 10.5346001,43.2410089 10.812976,43.5657809 C11.0918733,43.8910741 11.5673018,44.0531994 12.2413469,44.0531994 C13.1004547,44.0531994 13.9251564,43.8097508 14.7144095,43.3218109 L14.7144095,49.1046278 C13.995011,49.4528583 13.2396426,49.7082969 12.4503895,49.8709435 C11.6606151,50.0330688 10.6617981,50.1143921 9.45498111,50.1143921 C7.17844986,50.1143921 5.46023439,49.476317 4.29929207,48.1986027" id="Fill-14" fill="#1B42D8"></path>
                            <path d="M17.2987703,32.871297 L24.8581886,32.871297 L24.8581886,34.3695225 C25.5077324,33.7658534 26.3902988,33.2779136 27.5053664,32.9062244 C28.6199127,32.5350565 29.8163037,32.3489512 31.0934966,32.3489512 L31.0934966,38.410144 C29.7224691,38.410144 28.4859378,38.5905149 27.3833815,38.9502141 C26.2803038,39.3104346 25.531191,39.8155775 25.1365645,40.4651213 L25.1365645,49.5920984 L17.2987703,49.5920984 L17.2987703,32.871297 Z" id="Fill-16" fill="#1B42D8"></path>
                            <path d="M41.3423704,45.5164976 C41.7948616,45.3309136 42.1488265,45.0984124 42.4047864,44.8200365 L42.4047864,43.7049688 C41.6379493,43.2644676 40.8132476,43.0429137 39.9312025,43.0429137 C39.4432627,43.0429137 39.0606261,43.1711543 38.7817289,43.4265929 C38.503353,43.6820315 38.3636437,44.0182721 38.3636437,44.4368786 C38.3636437,44.8320264 38.4970973,45.1567983 38.7645259,45.4117156 C39.0309119,45.6676755 39.4203254,45.7953948 39.9312025,45.7953948 C40.4191424,45.7953948 40.8893579,45.7026028 41.3423704,45.5164976 M32.1981903,48.6688183 C30.8970174,47.7054499 30.2474736,46.2948033 30.2474736,44.4368786 C30.2474736,42.5554952 30.8798144,41.1271243 32.1455387,40.1517659 C33.4112629,39.1764076 35.2863907,38.6889891 37.7714432,38.6889891 C38.5143003,38.6889891 39.3275334,38.7760467 40.2095785,38.950162 C41.0926662,39.1242773 41.8235333,39.3275855 42.4047864,39.5595655 L42.4047864,39.2811895 C42.4047864,38.6775204 42.0216285,38.2010492 41.2547915,37.8528187 C40.4884757,37.5045881 39.4787113,37.3304728 38.2244557,37.3304728 C36.2044057,37.3304728 34.3579496,37.748558 32.6856088,38.5842071 L32.6856088,33.6026334 C33.4519246,33.2319868 34.4622103,32.9296309 35.7164659,32.6971296 C36.9702001,32.4651497 38.352175,32.3488991 39.8618692,32.3488991 C43.2055082,32.3488991 45.7713627,32.9645582 47.5599541,34.1953551 C49.3480243,35.4266734 50.2420593,37.1678262 50.2420593,39.4203775 L50.2420593,49.5920463 L42.8572776,49.5920463 L42.8572776,48.372718 C42.3229418,48.8606579 41.5628817,49.2730087 40.5755333,49.6097706 C39.5887063,49.9460112 38.537759,50.1143921 37.4232127,50.1143921 C35.2399947,50.1143921 33.4983206,49.632708 32.1981903,48.6688183" id="Fill-18" fill="#1B42D8"></path>
                            <path d="M54.1860832,47.8330649 C52.3860231,46.3124234 51.4862538,44.1114811 51.4862538,41.231802 C51.4862538,38.3521229 52.3860231,36.1517019 54.1860832,34.6305391 C55.985622,33.1098975 58.4649402,32.3487948 61.6235165,32.3487948 C63.0628348,32.3487948 64.4562783,32.4827697 65.8033259,32.7491557 C67.1498522,33.0165843 68.2299925,33.3940078 69.0432255,33.8814263 L69.0432255,39.8732858 C68.3462431,39.3624086 67.515807,38.967782 66.55296,38.6888848 C65.588549,38.4099876 64.606935,38.2707996 63.6086393,38.2707996 C62.401301,38.2707996 61.4316769,38.5262382 60.7002885,39.0371154 C59.9689001,39.5479925 59.6029452,40.2799023 59.6029452,41.231802 C59.6029452,42.2071604 59.9689001,42.9448044 60.7002885,43.4436916 C61.4316769,43.9436214 62.401301,44.1928044 63.6086393,44.1928044 C64.5839976,44.1928044 65.5650903,44.0478821 66.55296,43.7575162 C67.5392657,43.4671503 68.4275664,43.0547994 69.2173408,42.5204636 L69.2173408,48.512323 C68.3811704,48.9997416 67.2895614,49.3891551 65.9430352,49.679521 C64.5959876,49.9693656 63.1561481,50.1142879 61.6235165,50.1142879 C58.4649402,50.1142879 55.985622,49.3542278 54.1860832,47.8330649" id="Fill-20" fill="#1B42D8"></path>
                            <polygon id="Fill-22" fill="#1B42D8" points="86.2518104 40.8479143 92.1034392 32.8709321 83.1855047 32.8709321 78.7956101 38.861749 78.7956101 29.6049673 70.9583372 29.6049673 70.9583372 49.5917335 78.7956101 49.5917335 78.7956101 42.7292977 84.1259358 49.5917335 93.0438703 49.5917335"></polygon>
                        </g>
                        <g id="Group-82" transform="translate(100.611525, 26.869533)">
                            <g id="Group-27">
                                <mask id="mask-4" fill="white">
                                    <use xlink:href="#path-3"></use>
                                </mask>
                                <g id="Clip-26"></g>
                                <line x1="18.3067622" y1="25.880777" x2="44.6372675" y2="-0.449207001" id="Stroke-25" stroke="#1B42D8" stroke-width="0.649999976" mask="url(#mask-4)"></line>
                            </g>
                            <g id="Group-30">
                                <mask id="mask-6" fill="white">
                                    <use xlink:href="#path-5"></use>
                                </mask>
                                <g id="Clip-29"></g>
                                <line x1="15.7593097" y1="25.880777" x2="42.0892937" y2="-0.449207001" id="Stroke-28" stroke="#1B42D8" stroke-width="0.649999976" mask="url(#mask-6)"></line>
                            </g>
                            <g id="Group-33">
                                <mask id="mask-8" fill="white">
                                    <use xlink:href="#path-7"></use>
                                </mask>
                                <g id="Clip-32"></g>
                                <line x1="13.2113359" y1="25.880777" x2="39.5413199" y2="-0.449207001" id="Stroke-31" stroke="#1B42D8" stroke-width="0.649999976" mask="url(#mask-8)"></line>
                            </g>
                            <g id="Group-36">
                                <mask id="mask-10" fill="white">
                                    <use xlink:href="#path-9"></use>
                                </mask>
                                <g id="Clip-35"></g>
                                <line x1="10.6638833" y1="25.880777" x2="36.9938673" y2="-0.449207001" id="Stroke-34" stroke="#1B42D8" stroke-width="0.649999976" mask="url(#mask-10)"></line>
                            </g>
                            <g id="Group-39">
                                <mask id="mask-12" fill="white">
                                    <use xlink:href="#path-11"></use>
                                </mask>
                                <g id="Clip-38"></g>
                                <line x1="8.11590948" y1="25.880777" x2="34.4458935" y2="-0.449207001" id="Stroke-37" stroke="#1B42D8" stroke-width="0.649999976" mask="url(#mask-12)"></line>
                            </g>
                            <g id="Group-42">
                                <mask id="mask-14" fill="white">
                                    <use xlink:href="#path-13"></use>
                                </mask>
                                <g id="Clip-41"></g>
                                <line x1="5.56793564" y1="25.880777" x2="31.8979196" y2="-0.449207001" id="Stroke-40" stroke="#1B42D8" stroke-width="0.649999976" mask="url(#mask-14)"></line>
                            </g>
                            <g id="Group-45">
                                <mask id="mask-16" fill="white">
                                    <use xlink:href="#path-15"></use>
                                </mask>
                                <g id="Clip-44"></g>
                                <line x1="3.0204831" y1="25.880777" x2="29.3504671" y2="-0.449207001" id="Stroke-43" stroke="#1B42D8" stroke-width="0.649999976" mask="url(#mask-16)"></line>
                            </g>
                            <g id="Group-48">
                                <mask id="mask-18" fill="white">
                                    <use xlink:href="#path-17"></use>
                                </mask>
                                <g id="Clip-47"></g>
                                <line x1="0.472509256" y1="25.880777" x2="26.8024933" y2="-0.449207001" id="Stroke-46" stroke="#1B42D8" stroke-width="0.649999976" mask="url(#mask-18)"></line>
                            </g>
                            <g id="Group-51">
                                <mask id="mask-20" fill="white">
                                    <use xlink:href="#path-19"></use>
                                </mask>
                                <g id="Clip-50"></g>
                                <line x1="-2.07546459" y1="25.880777" x2="24.2550407" y2="-0.449207001" id="Stroke-49" stroke="#1B42D8" stroke-width="0.649999976" mask="url(#mask-20)"></line>
                            </g>
                            <g id="Group-54">
                                <mask id="mask-22" fill="white">
                                    <use xlink:href="#path-21"></use>
                                </mask>
                                <g id="Clip-53"></g>
                                <line x1="-4.62291712" y1="25.880777" x2="21.7070669" y2="-0.449207001" id="Stroke-52" stroke="#1B42D8" stroke-width="0.649999976" mask="url(#mask-22)"></line>
                            </g>
                            <g id="Group-57">
                                <mask id="mask-24" fill="white">
                                    <use xlink:href="#path-23"></use>
                                </mask>
                                <g id="Clip-56"></g>
                                <line x1="-7.17089097" y1="25.880777" x2="19.159093" y2="-0.449207001" id="Stroke-55" stroke="#1B42D8" stroke-width="0.649999976" mask="url(#mask-24)"></line>
                            </g>
                            <g id="Group-60">
                                <mask id="mask-26" fill="white">
                                    <use xlink:href="#path-25"></use>
                                </mask>
                                <g id="Clip-59"></g>
                                <line x1="-9.71886481" y1="25.880777" x2="16.6116405" y2="-0.449207001" id="Stroke-58" stroke="#1B42D8" stroke-width="0.649999976" mask="url(#mask-26)"></line>
                            </g>
                            <g id="Group-63">
                                <mask id="mask-28" fill="white">
                                    <use xlink:href="#path-27"></use>
                                </mask>
                                <g id="Clip-62"></g>
                                <line x1="-12.2663695" y1="25.880777" x2="14.0636145" y2="-0.449207001" id="Stroke-61" stroke="#1B42D8" stroke-width="0.649999976" mask="url(#mask-28)"></line>
                            </g>
                            <g id="Group-66">
                                <mask id="mask-30" fill="white">
                                    <use xlink:href="#path-29"></use>
                                </mask>
                                <g id="Clip-65"></g>
                                <line x1="-14.8142912" y1="25.880777" x2="11.5156928" y2="-0.449207001" id="Stroke-64" stroke="#1B42D8" stroke-width="0.649999976" mask="url(#mask-30)"></line>
                            </g>
                            <g id="Group-69">
                                <mask id="mask-32" fill="white">
                                    <use xlink:href="#path-31"></use>
                                </mask>
                                <g id="Clip-68"></g>
                                <line x1="-17.362265" y1="25.880777" x2="8.96824027" y2="-0.449207001" id="Stroke-67" stroke="#1B42D8" stroke-width="0.649999976" mask="url(#mask-32)"></line>
                            </g>
                            <g id="Group-72">
                                <mask id="mask-34" fill="white">
                                    <use xlink:href="#path-33"></use>
                                </mask>
                                <g id="Clip-71"></g>
                                <line x1="-19.9097697" y1="25.880777" x2="6.4202143" y2="-0.449207001" id="Stroke-70" stroke="#1B42D8" stroke-width="0.649999976" mask="url(#mask-34)"></line>
                            </g>
                            <g id="Group-75">
                                <mask id="mask-36" fill="white">
                                    <use xlink:href="#path-35"></use>
                                </mask>
                                <g id="Clip-74"></g>
                                <line x1="-22.4577435" y1="25.880777" x2="3.87224046" y2="-0.449207001" id="Stroke-73" stroke="#1B42D8" stroke-width="0.649999976" mask="url(#mask-36)"></line>
                            </g>
                            <g id="Group-78">
                                <mask id="mask-38" fill="white">
                                    <use xlink:href="#path-37"></use>
                                </mask>
                                <g id="Clip-77"></g>
                                <line x1="-25.0051961" y1="25.880777" x2="1.32478792" y2="-0.449207001" id="Stroke-76" stroke="#1B42D8" stroke-width="0.649999976" mask="url(#mask-38)"></line>
                            </g>
                            <g id="Group-81">
                                <mask id="mask-40" fill="white">
                                    <use xlink:href="#path-39"></use>
                                </mask>
                                <g id="Clip-80"></g>
                                <line x1="-27.5531699" y1="25.880777" x2="-1.22318592" y2="-0.449207001" id="Stroke-79" stroke="#1B42D8" stroke-width="0.649999976" mask="url(#mask-40)"></line>
                            </g>
                        </g>
                        <g id="Group-140" transform="translate(96.962402, 26.869533)">
                            <g id="Group-85">
                                <mask id="mask-42" fill="white">
                                    <use xlink:href="#path-41"></use>
                                </mask>
                                <g id="Clip-84"></g>
                                <line x1="18.7313637" y1="25.880777" x2="45.0613477" y2="-0.449207001" id="Stroke-83" stroke="#FFA015" stroke-width="0.649999976" mask="url(#mask-42)"></line>
                            </g>
                            <g id="Group-88">
                                <mask id="mask-44" fill="white">
                                    <use xlink:href="#path-43"></use>
                                </mask>
                                <g id="Clip-87"></g>
                                <line x1="16.1833899" y1="25.880777" x2="42.5133739" y2="-0.449207001" id="Stroke-86" stroke="#FFA015" stroke-width="0.649999976" mask="url(#mask-44)"></line>
                            </g>
                            <g id="Group-91">
                                <mask id="mask-46" fill="white">
                                    <use xlink:href="#path-45"></use>
                                </mask>
                                <g id="Clip-90"></g>
                                <line x1="13.6358852" y1="25.880777" x2="39.9658692" y2="-0.449207001" id="Stroke-89" stroke="#FFA015" stroke-width="0.649999976" mask="url(#mask-46)"></line>
                            </g>
                            <g id="Group-94">
                                <mask id="mask-48" fill="white">
                                    <use xlink:href="#path-47"></use>
                                </mask>
                                <g id="Clip-93"></g>
                                <line x1="11.0879635" y1="25.880777" x2="37.4179475" y2="-0.449207001" id="Stroke-92" stroke="#FFA015" stroke-width="0.649999976" mask="url(#mask-48)"></line>
                            </g>
                            <g id="Group-97">
                                <mask id="mask-50" fill="white">
                                    <use xlink:href="#path-49"></use>
                                </mask>
                                <g id="Clip-96"></g>
                                <line x1="8.53998966" y1="25.880777" x2="34.8699737" y2="-0.449207001" id="Stroke-95" stroke="#FFA015" stroke-width="0.649999976" mask="url(#mask-50)"></line>
                            </g>
                            <g id="Group-100">
                                <mask id="mask-52" fill="white">
                                    <use xlink:href="#path-51"></use>
                                </mask>
                                <g id="Clip-99"></g>
                                <line x1="5.99248499" y1="25.880777" x2="32.322469" y2="-0.449207001" id="Stroke-98" stroke="#FFA015" stroke-width="0.649999976" mask="url(#mask-52)"></line>
                            </g>
                            <g id="Group-103">
                                <mask id="mask-54" fill="white">
                                    <use xlink:href="#path-53"></use>
                                </mask>
                                <g id="Clip-102"></g>
                                <line x1="3.44451115" y1="25.880777" x2="29.7744951" y2="-0.449207001" id="Stroke-101" stroke="#FFA015" stroke-width="0.649999976" mask="url(#mask-54)"></line>
                            </g>
                            <g id="Group-106">
                                <mask id="mask-56" fill="white">
                                    <use xlink:href="#path-55"></use>
                                </mask>
                                <g id="Clip-105"></g>
                                <line x1="0.89653731" y1="25.880777" x2="27.2270426" y2="-0.449207001" id="Stroke-104" stroke="#FFA015" stroke-width="0.649999976" mask="url(#mask-56)"></line>
                            </g>
                            <g id="Group-109">
                                <mask id="mask-58" fill="white">
                                    <use xlink:href="#path-57"></use>
                                </mask>
                                <g id="Clip-108"></g>
                                <line x1="-1.65091523" y1="25.880777" x2="24.6790688" y2="-0.449207001" id="Stroke-107" stroke="#FFA015" stroke-width="0.649999976" mask="url(#mask-58)"></line>
                            </g>
                            <g id="Group-112">
                                <mask id="mask-60" fill="white">
                                    <use xlink:href="#path-59"></use>
                                </mask>
                                <g id="Clip-111"></g>
                                <line x1="-4.19888907" y1="25.880777" x2="22.1310949" y2="-0.449207001" id="Stroke-110" stroke="#FFA015" stroke-width="0.649999976" mask="url(#mask-60)"></line>
                            </g>
                            <g id="Group-115">
                                <mask id="mask-62" fill="white">
                                    <use xlink:href="#path-61"></use>
                                </mask>
                                <g id="Clip-114"></g>
                                <line x1="-6.74686291" y1="25.880777" x2="19.5836424" y2="-0.449207001" id="Stroke-113" stroke="#FFA015" stroke-width="0.649999976" mask="url(#mask-62)"></line>
                            </g>
                            <g id="Group-118">
                                <mask id="mask-64" fill="white">
                                    <use xlink:href="#path-63"></use>
                                </mask>
                                <g id="Clip-117"></g>
                                <line x1="-9.29431545" y1="25.880777" x2="17.0356685" y2="-0.449207001" id="Stroke-116" stroke="#FFA015" stroke-width="0.649999976" mask="url(#mask-64)"></line>
                            </g>
                            <g id="Group-121">
                                <mask id="mask-66" fill="white">
                                    <use xlink:href="#path-65"></use>
                                </mask>
                                <g id="Clip-120"></g>
                                <line x1="-11.8422893" y1="25.880777" x2="14.4876947" y2="-0.449207001" id="Stroke-119" stroke="#FFA015" stroke-width="0.649999976" mask="url(#mask-66)"></line>
                            </g>
                            <g id="Group-124">
                                <mask id="mask-68" fill="white">
                                    <use xlink:href="#path-67"></use>
                                </mask>
                                <g id="Clip-123"></g>
                                <line x1="-14.3897418" y1="25.880777" x2="11.9402422" y2="-0.449207001" id="Stroke-122" stroke="#FFA015" stroke-width="0.649999976" mask="url(#mask-68)"></line>
                            </g>
                            <g id="Group-127">
                                <mask id="mask-70" fill="white">
                                    <use xlink:href="#path-69"></use>
                                </mask>
                                <g id="Clip-126"></g>
                                <line x1="-16.9377157" y1="25.880777" x2="9.39226833" y2="-0.449207001" id="Stroke-125" stroke="#FFA015" stroke-width="0.649999976" mask="url(#mask-70)"></line>
                            </g>
                            <g id="Group-130">
                                <mask id="mask-72" fill="white">
                                    <use xlink:href="#path-71"></use>
                                </mask>
                                <g id="Clip-129"></g>
                                <line x1="-19.4856895" y1="25.880777" x2="6.84429449" y2="-0.449207001" id="Stroke-128" stroke="#FFA015" stroke-width="0.649999976" mask="url(#mask-72)"></line>
                            </g>
                            <g id="Group-133">
                                <mask id="mask-74" fill="white">
                                    <use xlink:href="#path-73"></use>
                                </mask>
                                <g id="Clip-132"></g>
                                <line x1="-22.033142" y1="25.880777" x2="4.29684195" y2="-0.449207001" id="Stroke-131" stroke="#FFA015" stroke-width="0.649999976" mask="url(#mask-74)"></line>
                            </g>
                            <g id="Group-136">
                                <mask id="mask-76" fill="white">
                                    <use xlink:href="#path-75"></use>
                                </mask>
                                <g id="Clip-135"></g>
                                <line x1="-24.5811159" y1="25.880777" x2="1.74886811" y2="-0.449207001" id="Stroke-134" stroke="#FFA015" stroke-width="0.649999976" mask="url(#mask-76)"></line>
                            </g>
                            <g id="Group-139">
                                <mask id="mask-78" fill="white">
                                    <use xlink:href="#path-77"></use>
                                </mask>
                                <g id="Clip-138"></g>
                                <line x1="-27.1290897" y1="25.880777" x2="-0.799105735" y2="-0.449207001" id="Stroke-137" stroke="#FFA015" stroke-width="0.649999976" mask="url(#mask-78)"></line>
                            </g>
                        </g>
                    </g>
                </g>
            </g>
        </g>
    </g>
</svg>